%TF.GenerationSoftware,KiCad,Pcbnew,10.0.0*%
%TF.CreationDate,2026-04-30T23:04:54-05:00*%
%TF.ProjectId,Project_02,50726f6a-6563-4745-9f30-322e6b696361,rev?*%
%TF.SameCoordinates,Original*%
%TF.FileFunction,Legend,Bot*%
%TF.FilePolarity,Positive*%
%FSLAX46Y46*%
G04 Gerber Fmt 4.6, Leading zero omitted, Abs format (unit mm)*
G04 Created by KiCad (PCBNEW 10.0.0) date 2026-04-30 23:04:54*
%MOMM*%
%LPD*%
G01*
G04 APERTURE LIST*
%ADD10C,0.100000*%
%ADD11C,0.152400*%
%ADD12C,0.198120*%
%ADD13C,0.254000*%
%ADD14C,0.750000*%
G04 APERTURE END LIST*
D10*
X61261905Y-64842580D02*
X61261905Y-65842580D01*
X61261905Y-65842580D02*
X61500000Y-65842580D01*
X61500000Y-65842580D02*
X61642857Y-65794961D01*
X61642857Y-65794961D02*
X61738095Y-65699723D01*
X61738095Y-65699723D02*
X61785714Y-65604485D01*
X61785714Y-65604485D02*
X61833333Y-65414009D01*
X61833333Y-65414009D02*
X61833333Y-65271152D01*
X61833333Y-65271152D02*
X61785714Y-65080676D01*
X61785714Y-65080676D02*
X61738095Y-64985438D01*
X61738095Y-64985438D02*
X61642857Y-64890200D01*
X61642857Y-64890200D02*
X61500000Y-64842580D01*
X61500000Y-64842580D02*
X61261905Y-64842580D01*
X62785714Y-64842580D02*
X62214286Y-64842580D01*
X62500000Y-64842580D02*
X62500000Y-65842580D01*
X62500000Y-65842580D02*
X62404762Y-65699723D01*
X62404762Y-65699723D02*
X62309524Y-65604485D01*
X62309524Y-65604485D02*
X62214286Y-65556866D01*
D11*
X73501348Y-75282571D02*
X74348015Y-75282571D01*
X74227063Y-75282571D02*
X74287539Y-75222094D01*
X74287539Y-75222094D02*
X74348015Y-75101142D01*
X74348015Y-75101142D02*
X74348015Y-74919713D01*
X74348015Y-74919713D02*
X74287539Y-74798761D01*
X74287539Y-74798761D02*
X74166586Y-74738285D01*
X74166586Y-74738285D02*
X73501348Y-74738285D01*
X74166586Y-74738285D02*
X74287539Y-74677809D01*
X74287539Y-74677809D02*
X74348015Y-74556856D01*
X74348015Y-74556856D02*
X74348015Y-74375428D01*
X74348015Y-74375428D02*
X74287539Y-74254475D01*
X74287539Y-74254475D02*
X74166586Y-74193999D01*
X74166586Y-74193999D02*
X73501348Y-74193999D01*
X73501348Y-73589238D02*
X74348015Y-73589238D01*
X74771348Y-73589238D02*
X74710872Y-73649714D01*
X74710872Y-73649714D02*
X74650396Y-73589238D01*
X74650396Y-73589238D02*
X74710872Y-73528761D01*
X74710872Y-73528761D02*
X74771348Y-73589238D01*
X74771348Y-73589238D02*
X74650396Y-73589238D01*
X73561825Y-72440190D02*
X73501348Y-72561142D01*
X73501348Y-72561142D02*
X73501348Y-72803047D01*
X73501348Y-72803047D02*
X73561825Y-72923999D01*
X73561825Y-72923999D02*
X73622301Y-72984476D01*
X73622301Y-72984476D02*
X73743253Y-73044952D01*
X73743253Y-73044952D02*
X74106110Y-73044952D01*
X74106110Y-73044952D02*
X74227063Y-72984476D01*
X74227063Y-72984476D02*
X74287539Y-72923999D01*
X74287539Y-72923999D02*
X74348015Y-72803047D01*
X74348015Y-72803047D02*
X74348015Y-72561142D01*
X74348015Y-72561142D02*
X74287539Y-72440190D01*
X73501348Y-71895905D02*
X74348015Y-71895905D01*
X74106110Y-71895905D02*
X74227063Y-71835428D01*
X74227063Y-71835428D02*
X74287539Y-71774952D01*
X74287539Y-71774952D02*
X74348015Y-71654000D01*
X74348015Y-71654000D02*
X74348015Y-71533047D01*
X73501348Y-70928286D02*
X73561825Y-71049238D01*
X73561825Y-71049238D02*
X73622301Y-71109715D01*
X73622301Y-71109715D02*
X73743253Y-71170191D01*
X73743253Y-71170191D02*
X74106110Y-71170191D01*
X74106110Y-71170191D02*
X74227063Y-71109715D01*
X74227063Y-71109715D02*
X74287539Y-71049238D01*
X74287539Y-71049238D02*
X74348015Y-70928286D01*
X74348015Y-70928286D02*
X74348015Y-70746857D01*
X74348015Y-70746857D02*
X74287539Y-70625905D01*
X74287539Y-70625905D02*
X74227063Y-70565429D01*
X74227063Y-70565429D02*
X74106110Y-70504953D01*
X74106110Y-70504953D02*
X73743253Y-70504953D01*
X73743253Y-70504953D02*
X73622301Y-70565429D01*
X73622301Y-70565429D02*
X73561825Y-70625905D01*
X73561825Y-70625905D02*
X73501348Y-70746857D01*
X73501348Y-70746857D02*
X73501348Y-70928286D01*
X74771348Y-69960667D02*
X73743253Y-69960667D01*
X73743253Y-69960667D02*
X73622301Y-69900190D01*
X73622301Y-69900190D02*
X73561825Y-69839714D01*
X73561825Y-69839714D02*
X73501348Y-69718762D01*
X73501348Y-69718762D02*
X73501348Y-69476857D01*
X73501348Y-69476857D02*
X73561825Y-69355905D01*
X73561825Y-69355905D02*
X73622301Y-69295428D01*
X73622301Y-69295428D02*
X73743253Y-69234952D01*
X73743253Y-69234952D02*
X74771348Y-69234952D01*
X73561825Y-68690667D02*
X73501348Y-68509238D01*
X73501348Y-68509238D02*
X73501348Y-68206857D01*
X73501348Y-68206857D02*
X73561825Y-68085905D01*
X73561825Y-68085905D02*
X73622301Y-68025429D01*
X73622301Y-68025429D02*
X73743253Y-67964952D01*
X73743253Y-67964952D02*
X73864205Y-67964952D01*
X73864205Y-67964952D02*
X73985158Y-68025429D01*
X73985158Y-68025429D02*
X74045634Y-68085905D01*
X74045634Y-68085905D02*
X74106110Y-68206857D01*
X74106110Y-68206857D02*
X74166586Y-68448762D01*
X74166586Y-68448762D02*
X74227063Y-68569714D01*
X74227063Y-68569714D02*
X74287539Y-68630191D01*
X74287539Y-68630191D02*
X74408491Y-68690667D01*
X74408491Y-68690667D02*
X74529444Y-68690667D01*
X74529444Y-68690667D02*
X74650396Y-68630191D01*
X74650396Y-68630191D02*
X74710872Y-68569714D01*
X74710872Y-68569714D02*
X74771348Y-68448762D01*
X74771348Y-68448762D02*
X74771348Y-68146381D01*
X74771348Y-68146381D02*
X74710872Y-67964952D01*
X74166586Y-66997333D02*
X74106110Y-66815905D01*
X74106110Y-66815905D02*
X74045634Y-66755428D01*
X74045634Y-66755428D02*
X73924682Y-66694952D01*
X73924682Y-66694952D02*
X73743253Y-66694952D01*
X73743253Y-66694952D02*
X73622301Y-66755428D01*
X73622301Y-66755428D02*
X73561825Y-66815905D01*
X73561825Y-66815905D02*
X73501348Y-66936857D01*
X73501348Y-66936857D02*
X73501348Y-67420667D01*
X73501348Y-67420667D02*
X74771348Y-67420667D01*
X74771348Y-67420667D02*
X74771348Y-66997333D01*
X74771348Y-66997333D02*
X74710872Y-66876381D01*
X74710872Y-66876381D02*
X74650396Y-66815905D01*
X74650396Y-66815905D02*
X74529444Y-66755428D01*
X74529444Y-66755428D02*
X74408491Y-66755428D01*
X74408491Y-66755428D02*
X74287539Y-66815905D01*
X74287539Y-66815905D02*
X74227063Y-66876381D01*
X74227063Y-66876381D02*
X74166586Y-66997333D01*
X74166586Y-66997333D02*
X74166586Y-67420667D01*
X72914667Y-87057348D02*
X72491333Y-87662110D01*
X72188952Y-87057348D02*
X72188952Y-88327348D01*
X72188952Y-88327348D02*
X72672762Y-88327348D01*
X72672762Y-88327348D02*
X72793714Y-88266872D01*
X72793714Y-88266872D02*
X72854191Y-88206396D01*
X72854191Y-88206396D02*
X72914667Y-88085444D01*
X72914667Y-88085444D02*
X72914667Y-87904015D01*
X72914667Y-87904015D02*
X72854191Y-87783063D01*
X72854191Y-87783063D02*
X72793714Y-87722586D01*
X72793714Y-87722586D02*
X72672762Y-87662110D01*
X72672762Y-87662110D02*
X72188952Y-87662110D01*
X73458952Y-87722586D02*
X73882286Y-87722586D01*
X74063714Y-87057348D02*
X73458952Y-87057348D01*
X73458952Y-87057348D02*
X73458952Y-88327348D01*
X73458952Y-88327348D02*
X74063714Y-88327348D01*
X75031334Y-87722586D02*
X74608000Y-87722586D01*
X74608000Y-87057348D02*
X74608000Y-88327348D01*
X74608000Y-88327348D02*
X75212762Y-88327348D01*
X75878000Y-88327348D02*
X75878000Y-88024967D01*
X75575619Y-88145920D02*
X75878000Y-88024967D01*
X75878000Y-88024967D02*
X76180381Y-88145920D01*
X75696571Y-87783063D02*
X75878000Y-88024967D01*
X75878000Y-88024967D02*
X76059429Y-87783063D01*
X76845619Y-88327348D02*
X76845619Y-88024967D01*
X76543238Y-88145920D02*
X76845619Y-88024967D01*
X76845619Y-88024967D02*
X77148000Y-88145920D01*
X76664190Y-87783063D02*
X76845619Y-88024967D01*
X76845619Y-88024967D02*
X77027048Y-87783063D01*
D12*
X74170636Y-58077238D02*
X74170636Y-59530118D01*
X74170636Y-59530118D02*
X74724114Y-59530118D01*
X74724114Y-59530118D02*
X74862484Y-59460933D01*
X74862484Y-59460933D02*
X74931669Y-59391748D01*
X74931669Y-59391748D02*
X75000853Y-59253379D01*
X75000853Y-59253379D02*
X75000853Y-59045824D01*
X75000853Y-59045824D02*
X74931669Y-58907455D01*
X74931669Y-58907455D02*
X74862484Y-58838270D01*
X74862484Y-58838270D02*
X74724114Y-58769085D01*
X74724114Y-58769085D02*
X74170636Y-58769085D01*
X76384549Y-58077238D02*
X75554332Y-58077238D01*
X75969440Y-58077238D02*
X75969440Y-59530118D01*
X75969440Y-59530118D02*
X75831071Y-59322563D01*
X75831071Y-59322563D02*
X75692701Y-59184194D01*
X75692701Y-59184194D02*
X75554332Y-59115009D01*
X74170636Y-80937238D02*
X74170636Y-82390118D01*
X74170636Y-82390118D02*
X74724114Y-82390118D01*
X74724114Y-82390118D02*
X74862484Y-82320933D01*
X74862484Y-82320933D02*
X74931669Y-82251748D01*
X74931669Y-82251748D02*
X75000853Y-82113379D01*
X75000853Y-82113379D02*
X75000853Y-81905824D01*
X75000853Y-81905824D02*
X74931669Y-81767455D01*
X74931669Y-81767455D02*
X74862484Y-81698270D01*
X74862484Y-81698270D02*
X74724114Y-81629085D01*
X74724114Y-81629085D02*
X74170636Y-81629085D01*
X75554332Y-82251748D02*
X75623516Y-82320933D01*
X75623516Y-82320933D02*
X75761886Y-82390118D01*
X75761886Y-82390118D02*
X76107810Y-82390118D01*
X76107810Y-82390118D02*
X76246179Y-82320933D01*
X76246179Y-82320933D02*
X76315364Y-82251748D01*
X76315364Y-82251748D02*
X76384549Y-82113379D01*
X76384549Y-82113379D02*
X76384549Y-81975009D01*
X76384549Y-81975009D02*
X76315364Y-81767455D01*
X76315364Y-81767455D02*
X75485147Y-80937238D01*
X75485147Y-80937238D02*
X76384549Y-80937238D01*
D13*
X91708438Y-69344800D02*
X91708438Y-71122800D01*
X91708438Y-71122800D02*
X92385771Y-71122800D01*
X92385771Y-71122800D02*
X92555105Y-71038133D01*
X92555105Y-71038133D02*
X92639771Y-70953467D01*
X92639771Y-70953467D02*
X92724438Y-70784133D01*
X92724438Y-70784133D02*
X92724438Y-70530133D01*
X92724438Y-70530133D02*
X92639771Y-70360800D01*
X92639771Y-70360800D02*
X92555105Y-70276133D01*
X92555105Y-70276133D02*
X92385771Y-70191467D01*
X92385771Y-70191467D02*
X91708438Y-70191467D01*
X93740438Y-69344800D02*
X93571105Y-69429467D01*
X93571105Y-69429467D02*
X93486438Y-69514133D01*
X93486438Y-69514133D02*
X93401771Y-69683467D01*
X93401771Y-69683467D02*
X93401771Y-70191467D01*
X93401771Y-70191467D02*
X93486438Y-70360800D01*
X93486438Y-70360800D02*
X93571105Y-70445467D01*
X93571105Y-70445467D02*
X93740438Y-70530133D01*
X93740438Y-70530133D02*
X93994438Y-70530133D01*
X93994438Y-70530133D02*
X94163771Y-70445467D01*
X94163771Y-70445467D02*
X94248438Y-70360800D01*
X94248438Y-70360800D02*
X94333105Y-70191467D01*
X94333105Y-70191467D02*
X94333105Y-69683467D01*
X94333105Y-69683467D02*
X94248438Y-69514133D01*
X94248438Y-69514133D02*
X94163771Y-69429467D01*
X94163771Y-69429467D02*
X93994438Y-69344800D01*
X93994438Y-69344800D02*
X93740438Y-69344800D01*
X95857105Y-69429467D02*
X95687772Y-69344800D01*
X95687772Y-69344800D02*
X95349105Y-69344800D01*
X95349105Y-69344800D02*
X95179772Y-69429467D01*
X95179772Y-69429467D02*
X95095105Y-69514133D01*
X95095105Y-69514133D02*
X95010438Y-69683467D01*
X95010438Y-69683467D02*
X95010438Y-70191467D01*
X95010438Y-70191467D02*
X95095105Y-70360800D01*
X95095105Y-70360800D02*
X95179772Y-70445467D01*
X95179772Y-70445467D02*
X95349105Y-70530133D01*
X95349105Y-70530133D02*
X95687772Y-70530133D01*
X95687772Y-70530133D02*
X95857105Y-70445467D01*
X96619105Y-69344800D02*
X96619105Y-71122800D01*
X96788438Y-70022133D02*
X97296438Y-69344800D01*
X97296438Y-70530133D02*
X96619105Y-69852800D01*
X98735771Y-69429467D02*
X98566438Y-69344800D01*
X98566438Y-69344800D02*
X98227771Y-69344800D01*
X98227771Y-69344800D02*
X98058438Y-69429467D01*
X98058438Y-69429467D02*
X97973771Y-69598800D01*
X97973771Y-69598800D02*
X97973771Y-70276133D01*
X97973771Y-70276133D02*
X98058438Y-70445467D01*
X98058438Y-70445467D02*
X98227771Y-70530133D01*
X98227771Y-70530133D02*
X98566438Y-70530133D01*
X98566438Y-70530133D02*
X98735771Y-70445467D01*
X98735771Y-70445467D02*
X98820438Y-70276133D01*
X98820438Y-70276133D02*
X98820438Y-70106800D01*
X98820438Y-70106800D02*
X97973771Y-69937467D01*
X99328438Y-70530133D02*
X100005771Y-70530133D01*
X99582438Y-71122800D02*
X99582438Y-69598800D01*
X99582438Y-69598800D02*
X99667105Y-69429467D01*
X99667105Y-69429467D02*
X99836438Y-69344800D01*
X99836438Y-69344800D02*
X100005771Y-69344800D01*
X101191105Y-70276133D02*
X101445105Y-70191467D01*
X101445105Y-70191467D02*
X101529771Y-70106800D01*
X101529771Y-70106800D02*
X101614438Y-69937467D01*
X101614438Y-69937467D02*
X101614438Y-69683467D01*
X101614438Y-69683467D02*
X101529771Y-69514133D01*
X101529771Y-69514133D02*
X101445105Y-69429467D01*
X101445105Y-69429467D02*
X101275771Y-69344800D01*
X101275771Y-69344800D02*
X100598438Y-69344800D01*
X100598438Y-69344800D02*
X100598438Y-71122800D01*
X100598438Y-71122800D02*
X101191105Y-71122800D01*
X101191105Y-71122800D02*
X101360438Y-71038133D01*
X101360438Y-71038133D02*
X101445105Y-70953467D01*
X101445105Y-70953467D02*
X101529771Y-70784133D01*
X101529771Y-70784133D02*
X101529771Y-70614800D01*
X101529771Y-70614800D02*
X101445105Y-70445467D01*
X101445105Y-70445467D02*
X101360438Y-70360800D01*
X101360438Y-70360800D02*
X101191105Y-70276133D01*
X101191105Y-70276133D02*
X100598438Y-70276133D01*
X103053771Y-69429467D02*
X102884438Y-69344800D01*
X102884438Y-69344800D02*
X102545771Y-69344800D01*
X102545771Y-69344800D02*
X102376438Y-69429467D01*
X102376438Y-69429467D02*
X102291771Y-69598800D01*
X102291771Y-69598800D02*
X102291771Y-70276133D01*
X102291771Y-70276133D02*
X102376438Y-70445467D01*
X102376438Y-70445467D02*
X102545771Y-70530133D01*
X102545771Y-70530133D02*
X102884438Y-70530133D01*
X102884438Y-70530133D02*
X103053771Y-70445467D01*
X103053771Y-70445467D02*
X103138438Y-70276133D01*
X103138438Y-70276133D02*
X103138438Y-70106800D01*
X103138438Y-70106800D02*
X102291771Y-69937467D01*
X104662438Y-69344800D02*
X104662438Y-70276133D01*
X104662438Y-70276133D02*
X104577771Y-70445467D01*
X104577771Y-70445467D02*
X104408438Y-70530133D01*
X104408438Y-70530133D02*
X104069771Y-70530133D01*
X104069771Y-70530133D02*
X103900438Y-70445467D01*
X104662438Y-69429467D02*
X104493105Y-69344800D01*
X104493105Y-69344800D02*
X104069771Y-69344800D01*
X104069771Y-69344800D02*
X103900438Y-69429467D01*
X103900438Y-69429467D02*
X103815771Y-69598800D01*
X103815771Y-69598800D02*
X103815771Y-69768133D01*
X103815771Y-69768133D02*
X103900438Y-69937467D01*
X103900438Y-69937467D02*
X104069771Y-70022133D01*
X104069771Y-70022133D02*
X104493105Y-70022133D01*
X104493105Y-70022133D02*
X104662438Y-70106800D01*
X106271105Y-70530133D02*
X106271105Y-69090800D01*
X106271105Y-69090800D02*
X106186438Y-68921467D01*
X106186438Y-68921467D02*
X106101772Y-68836800D01*
X106101772Y-68836800D02*
X105932438Y-68752133D01*
X105932438Y-68752133D02*
X105678438Y-68752133D01*
X105678438Y-68752133D02*
X105509105Y-68836800D01*
X106271105Y-69429467D02*
X106101772Y-69344800D01*
X106101772Y-69344800D02*
X105763105Y-69344800D01*
X105763105Y-69344800D02*
X105593772Y-69429467D01*
X105593772Y-69429467D02*
X105509105Y-69514133D01*
X105509105Y-69514133D02*
X105424438Y-69683467D01*
X105424438Y-69683467D02*
X105424438Y-70191467D01*
X105424438Y-70191467D02*
X105509105Y-70360800D01*
X105509105Y-70360800D02*
X105593772Y-70445467D01*
X105593772Y-70445467D02*
X105763105Y-70530133D01*
X105763105Y-70530133D02*
X106101772Y-70530133D01*
X106101772Y-70530133D02*
X106271105Y-70445467D01*
X107371772Y-69344800D02*
X107202439Y-69429467D01*
X107202439Y-69429467D02*
X107117772Y-69598800D01*
X107117772Y-69598800D02*
X107117772Y-71122800D01*
X108726438Y-69429467D02*
X108557105Y-69344800D01*
X108557105Y-69344800D02*
X108218438Y-69344800D01*
X108218438Y-69344800D02*
X108049105Y-69429467D01*
X108049105Y-69429467D02*
X107964438Y-69598800D01*
X107964438Y-69598800D02*
X107964438Y-70276133D01*
X107964438Y-70276133D02*
X108049105Y-70445467D01*
X108049105Y-70445467D02*
X108218438Y-70530133D01*
X108218438Y-70530133D02*
X108557105Y-70530133D01*
X108557105Y-70530133D02*
X108726438Y-70445467D01*
X108726438Y-70445467D02*
X108811105Y-70276133D01*
X108811105Y-70276133D02*
X108811105Y-70106800D01*
X108811105Y-70106800D02*
X107964438Y-69937467D01*
D11*
X123031348Y-74617333D02*
X123878015Y-74617333D01*
X123757063Y-74617333D02*
X123817539Y-74556856D01*
X123817539Y-74556856D02*
X123878015Y-74435904D01*
X123878015Y-74435904D02*
X123878015Y-74254475D01*
X123878015Y-74254475D02*
X123817539Y-74133523D01*
X123817539Y-74133523D02*
X123696586Y-74073047D01*
X123696586Y-74073047D02*
X123031348Y-74073047D01*
X123696586Y-74073047D02*
X123817539Y-74012571D01*
X123817539Y-74012571D02*
X123878015Y-73891618D01*
X123878015Y-73891618D02*
X123878015Y-73710190D01*
X123878015Y-73710190D02*
X123817539Y-73589237D01*
X123817539Y-73589237D02*
X123696586Y-73528761D01*
X123696586Y-73528761D02*
X123031348Y-73528761D01*
X123031348Y-72924000D02*
X123878015Y-72924000D01*
X124301348Y-72924000D02*
X124240872Y-72984476D01*
X124240872Y-72984476D02*
X124180396Y-72924000D01*
X124180396Y-72924000D02*
X124240872Y-72863523D01*
X124240872Y-72863523D02*
X124301348Y-72924000D01*
X124301348Y-72924000D02*
X124180396Y-72924000D01*
X123091825Y-71774952D02*
X123031348Y-71895904D01*
X123031348Y-71895904D02*
X123031348Y-72137809D01*
X123031348Y-72137809D02*
X123091825Y-72258761D01*
X123091825Y-72258761D02*
X123152301Y-72319238D01*
X123152301Y-72319238D02*
X123273253Y-72379714D01*
X123273253Y-72379714D02*
X123636110Y-72379714D01*
X123636110Y-72379714D02*
X123757063Y-72319238D01*
X123757063Y-72319238D02*
X123817539Y-72258761D01*
X123817539Y-72258761D02*
X123878015Y-72137809D01*
X123878015Y-72137809D02*
X123878015Y-71895904D01*
X123878015Y-71895904D02*
X123817539Y-71774952D01*
X123031348Y-71230667D02*
X123878015Y-71230667D01*
X123636110Y-71230667D02*
X123757063Y-71170190D01*
X123757063Y-71170190D02*
X123817539Y-71109714D01*
X123817539Y-71109714D02*
X123878015Y-70988762D01*
X123878015Y-70988762D02*
X123878015Y-70867809D01*
X123031348Y-70263048D02*
X123091825Y-70384000D01*
X123091825Y-70384000D02*
X123152301Y-70444477D01*
X123152301Y-70444477D02*
X123273253Y-70504953D01*
X123273253Y-70504953D02*
X123636110Y-70504953D01*
X123636110Y-70504953D02*
X123757063Y-70444477D01*
X123757063Y-70444477D02*
X123817539Y-70384000D01*
X123817539Y-70384000D02*
X123878015Y-70263048D01*
X123878015Y-70263048D02*
X123878015Y-70081619D01*
X123878015Y-70081619D02*
X123817539Y-69960667D01*
X123817539Y-69960667D02*
X123757063Y-69900191D01*
X123757063Y-69900191D02*
X123636110Y-69839715D01*
X123636110Y-69839715D02*
X123273253Y-69839715D01*
X123273253Y-69839715D02*
X123152301Y-69900191D01*
X123152301Y-69900191D02*
X123091825Y-69960667D01*
X123091825Y-69960667D02*
X123031348Y-70081619D01*
X123031348Y-70081619D02*
X123031348Y-70263048D01*
X123091825Y-69355905D02*
X123031348Y-69174476D01*
X123031348Y-69174476D02*
X123031348Y-68872095D01*
X123031348Y-68872095D02*
X123091825Y-68751143D01*
X123091825Y-68751143D02*
X123152301Y-68690667D01*
X123152301Y-68690667D02*
X123273253Y-68630190D01*
X123273253Y-68630190D02*
X123394205Y-68630190D01*
X123394205Y-68630190D02*
X123515158Y-68690667D01*
X123515158Y-68690667D02*
X123575634Y-68751143D01*
X123575634Y-68751143D02*
X123636110Y-68872095D01*
X123636110Y-68872095D02*
X123696586Y-69114000D01*
X123696586Y-69114000D02*
X123757063Y-69234952D01*
X123757063Y-69234952D02*
X123817539Y-69295429D01*
X123817539Y-69295429D02*
X123938491Y-69355905D01*
X123938491Y-69355905D02*
X124059444Y-69355905D01*
X124059444Y-69355905D02*
X124180396Y-69295429D01*
X124180396Y-69295429D02*
X124240872Y-69234952D01*
X124240872Y-69234952D02*
X124301348Y-69114000D01*
X124301348Y-69114000D02*
X124301348Y-68811619D01*
X124301348Y-68811619D02*
X124240872Y-68630190D01*
X123031348Y-68085905D02*
X124301348Y-68085905D01*
X124301348Y-68085905D02*
X124301348Y-67783524D01*
X124301348Y-67783524D02*
X124240872Y-67602095D01*
X124240872Y-67602095D02*
X124119920Y-67481143D01*
X124119920Y-67481143D02*
X123998967Y-67420666D01*
X123998967Y-67420666D02*
X123757063Y-67360190D01*
X123757063Y-67360190D02*
X123575634Y-67360190D01*
X123575634Y-67360190D02*
X123333729Y-67420666D01*
X123333729Y-67420666D02*
X123212777Y-67481143D01*
X123212777Y-67481143D02*
X123091825Y-67602095D01*
X123091825Y-67602095D02*
X123031348Y-67783524D01*
X123031348Y-67783524D02*
X123031348Y-68085905D01*
%TO.C,D1*%
D10*
X53000000Y-51300000D02*
X71300000Y-51300000D01*
X53000000Y-71800000D02*
X53000000Y-51300000D01*
X53000000Y-71800000D02*
X71300000Y-71800000D01*
X71300000Y-71700000D02*
X71300000Y-51300000D01*
X71300000Y-71800000D02*
X71300000Y-71700000D01*
D14*
X57375000Y-70390000D02*
G75*
G02*
X56625000Y-70390000I-375000J0D01*
G01*
X56625000Y-70390000D02*
G75*
G02*
X57375000Y-70390000I375000J0D01*
G01*
%TO.C,U1*%
D13*
X71941000Y-78112000D02*
X71941000Y-63112000D01*
X81941000Y-53112000D02*
X116941000Y-53112000D01*
X116941000Y-88112000D02*
X81941000Y-88112000D01*
X126941000Y-63112000D02*
X126941000Y-78112000D01*
X71941000Y-63112000D02*
G75*
G02*
X81941000Y-53112000I10000000J0D01*
G01*
X81941000Y-88112000D02*
G75*
G02*
X71941000Y-78112000I0J10000000D01*
G01*
X116941000Y-53112000D02*
G75*
G02*
X126941000Y-63112000I0J-10000000D01*
G01*
X126941000Y-78112000D02*
G75*
G02*
X116941000Y-88112000I-10000000J0D01*
G01*
%TD*%
M02*
