%TF.GenerationSoftware,KiCad,Pcbnew,10.0.0*%
%TF.CreationDate,2026-04-30T23:04:54-05:00*%
%TF.ProjectId,Project_02,50726f6a-6563-4745-9f30-322e6b696361,rev?*%
%TF.SameCoordinates,Original*%
%TF.FileFunction,Legend,Top*%
%TF.FilePolarity,Positive*%
%FSLAX46Y46*%
G04 Gerber Fmt 4.6, Leading zero omitted, Abs format (unit mm)*
G04 Created by KiCad (PCBNEW 10.0.0) date 2026-04-30 23:04:54*
%MOMM*%
%LPD*%
G01*
G04 APERTURE LIST*
%ADD10C,0.127000*%
%ADD11C,0.140208*%
%ADD12C,0.100000*%
%ADD13C,0.137160*%
%ADD14C,0.081280*%
%ADD15C,0.254000*%
%ADD16C,0.750000*%
%ADD17C,0.508000*%
G04 APERTURE END LIST*
D10*
X107238371Y-87355220D02*
X107354485Y-87393924D01*
X107354485Y-87393924D02*
X107548009Y-87393924D01*
X107548009Y-87393924D02*
X107625418Y-87355220D01*
X107625418Y-87355220D02*
X107664123Y-87316515D01*
X107664123Y-87316515D02*
X107702828Y-87239105D01*
X107702828Y-87239105D02*
X107702828Y-87161696D01*
X107702828Y-87161696D02*
X107664123Y-87084286D01*
X107664123Y-87084286D02*
X107625418Y-87045581D01*
X107625418Y-87045581D02*
X107548009Y-87006877D01*
X107548009Y-87006877D02*
X107393190Y-86968172D01*
X107393190Y-86968172D02*
X107315780Y-86929467D01*
X107315780Y-86929467D02*
X107277075Y-86890762D01*
X107277075Y-86890762D02*
X107238371Y-86813353D01*
X107238371Y-86813353D02*
X107238371Y-86735943D01*
X107238371Y-86735943D02*
X107277075Y-86658534D01*
X107277075Y-86658534D02*
X107315780Y-86619829D01*
X107315780Y-86619829D02*
X107393190Y-86581124D01*
X107393190Y-86581124D02*
X107586713Y-86581124D01*
X107586713Y-86581124D02*
X107702828Y-86619829D01*
X107935056Y-86852058D02*
X108244694Y-86852058D01*
X108051170Y-86581124D02*
X108051170Y-87277810D01*
X108051170Y-87277810D02*
X108089875Y-87355220D01*
X108089875Y-87355220D02*
X108167285Y-87393924D01*
X108167285Y-87393924D02*
X108244694Y-87393924D01*
X108863970Y-87393924D02*
X108863970Y-86968172D01*
X108863970Y-86968172D02*
X108825265Y-86890762D01*
X108825265Y-86890762D02*
X108747856Y-86852058D01*
X108747856Y-86852058D02*
X108593037Y-86852058D01*
X108593037Y-86852058D02*
X108515627Y-86890762D01*
X108863970Y-87355220D02*
X108786561Y-87393924D01*
X108786561Y-87393924D02*
X108593037Y-87393924D01*
X108593037Y-87393924D02*
X108515627Y-87355220D01*
X108515627Y-87355220D02*
X108476923Y-87277810D01*
X108476923Y-87277810D02*
X108476923Y-87200400D01*
X108476923Y-87200400D02*
X108515627Y-87122991D01*
X108515627Y-87122991D02*
X108593037Y-87084286D01*
X108593037Y-87084286D02*
X108786561Y-87084286D01*
X108786561Y-87084286D02*
X108863970Y-87045581D01*
X109251017Y-87393924D02*
X109251017Y-86852058D01*
X109251017Y-87006877D02*
X109289722Y-86929467D01*
X109289722Y-86929467D02*
X109328427Y-86890762D01*
X109328427Y-86890762D02*
X109405836Y-86852058D01*
X109405836Y-86852058D02*
X109483246Y-86852058D01*
X109638065Y-86852058D02*
X109947703Y-86852058D01*
X109754179Y-86581124D02*
X109754179Y-87277810D01*
X109754179Y-87277810D02*
X109792884Y-87355220D01*
X109792884Y-87355220D02*
X109870294Y-87393924D01*
X109870294Y-87393924D02*
X109947703Y-87393924D01*
X110799208Y-86542420D02*
X110102522Y-87587448D01*
X111031437Y-87355220D02*
X111147551Y-87393924D01*
X111147551Y-87393924D02*
X111341075Y-87393924D01*
X111341075Y-87393924D02*
X111418484Y-87355220D01*
X111418484Y-87355220D02*
X111457189Y-87316515D01*
X111457189Y-87316515D02*
X111495894Y-87239105D01*
X111495894Y-87239105D02*
X111495894Y-87161696D01*
X111495894Y-87161696D02*
X111457189Y-87084286D01*
X111457189Y-87084286D02*
X111418484Y-87045581D01*
X111418484Y-87045581D02*
X111341075Y-87006877D01*
X111341075Y-87006877D02*
X111186256Y-86968172D01*
X111186256Y-86968172D02*
X111108846Y-86929467D01*
X111108846Y-86929467D02*
X111070141Y-86890762D01*
X111070141Y-86890762D02*
X111031437Y-86813353D01*
X111031437Y-86813353D02*
X111031437Y-86735943D01*
X111031437Y-86735943D02*
X111070141Y-86658534D01*
X111070141Y-86658534D02*
X111108846Y-86619829D01*
X111108846Y-86619829D02*
X111186256Y-86581124D01*
X111186256Y-86581124D02*
X111379779Y-86581124D01*
X111379779Y-86581124D02*
X111495894Y-86619829D01*
X111728122Y-86852058D02*
X112037760Y-86852058D01*
X111844236Y-86581124D02*
X111844236Y-87277810D01*
X111844236Y-87277810D02*
X111882941Y-87355220D01*
X111882941Y-87355220D02*
X111960351Y-87393924D01*
X111960351Y-87393924D02*
X112037760Y-87393924D01*
X112424808Y-87393924D02*
X112347398Y-87355220D01*
X112347398Y-87355220D02*
X112308693Y-87316515D01*
X112308693Y-87316515D02*
X112269989Y-87239105D01*
X112269989Y-87239105D02*
X112269989Y-87006877D01*
X112269989Y-87006877D02*
X112308693Y-86929467D01*
X112308693Y-86929467D02*
X112347398Y-86890762D01*
X112347398Y-86890762D02*
X112424808Y-86852058D01*
X112424808Y-86852058D02*
X112540922Y-86852058D01*
X112540922Y-86852058D02*
X112618331Y-86890762D01*
X112618331Y-86890762D02*
X112657036Y-86929467D01*
X112657036Y-86929467D02*
X112695741Y-87006877D01*
X112695741Y-87006877D02*
X112695741Y-87239105D01*
X112695741Y-87239105D02*
X112657036Y-87316515D01*
X112657036Y-87316515D02*
X112618331Y-87355220D01*
X112618331Y-87355220D02*
X112540922Y-87393924D01*
X112540922Y-87393924D02*
X112424808Y-87393924D01*
X113044083Y-86852058D02*
X113044083Y-87664858D01*
X113044083Y-86890762D02*
X113121493Y-86852058D01*
X113121493Y-86852058D02*
X113276312Y-86852058D01*
X113276312Y-86852058D02*
X113353721Y-86890762D01*
X113353721Y-86890762D02*
X113392426Y-86929467D01*
X113392426Y-86929467D02*
X113431131Y-87006877D01*
X113431131Y-87006877D02*
X113431131Y-87239105D01*
X113431131Y-87239105D02*
X113392426Y-87316515D01*
X113392426Y-87316515D02*
X113353721Y-87355220D01*
X113353721Y-87355220D02*
X113276312Y-87393924D01*
X113276312Y-87393924D02*
X113121493Y-87393924D01*
X113121493Y-87393924D02*
X113044083Y-87355220D01*
X89241532Y-86816515D02*
X89202828Y-86855220D01*
X89202828Y-86855220D02*
X89086713Y-86893924D01*
X89086713Y-86893924D02*
X89009304Y-86893924D01*
X89009304Y-86893924D02*
X88893190Y-86855220D01*
X88893190Y-86855220D02*
X88815780Y-86777810D01*
X88815780Y-86777810D02*
X88777075Y-86700400D01*
X88777075Y-86700400D02*
X88738371Y-86545581D01*
X88738371Y-86545581D02*
X88738371Y-86429467D01*
X88738371Y-86429467D02*
X88777075Y-86274648D01*
X88777075Y-86274648D02*
X88815780Y-86197239D01*
X88815780Y-86197239D02*
X88893190Y-86119829D01*
X88893190Y-86119829D02*
X89009304Y-86081124D01*
X89009304Y-86081124D02*
X89086713Y-86081124D01*
X89086713Y-86081124D02*
X89202828Y-86119829D01*
X89202828Y-86119829D02*
X89241532Y-86158534D01*
X89512466Y-86352058D02*
X89705990Y-86893924D01*
X89899513Y-86352058D02*
X89705990Y-86893924D01*
X89705990Y-86893924D02*
X89628580Y-87087448D01*
X89628580Y-87087448D02*
X89589875Y-87126153D01*
X89589875Y-87126153D02*
X89512466Y-87164858D01*
X90557494Y-86855220D02*
X90480085Y-86893924D01*
X90480085Y-86893924D02*
X90325266Y-86893924D01*
X90325266Y-86893924D02*
X90247856Y-86855220D01*
X90247856Y-86855220D02*
X90209151Y-86816515D01*
X90209151Y-86816515D02*
X90170447Y-86739105D01*
X90170447Y-86739105D02*
X90170447Y-86506877D01*
X90170447Y-86506877D02*
X90209151Y-86429467D01*
X90209151Y-86429467D02*
X90247856Y-86390762D01*
X90247856Y-86390762D02*
X90325266Y-86352058D01*
X90325266Y-86352058D02*
X90480085Y-86352058D01*
X90480085Y-86352058D02*
X90557494Y-86390762D01*
X91021952Y-86893924D02*
X90944542Y-86855220D01*
X90944542Y-86855220D02*
X90905837Y-86777810D01*
X90905837Y-86777810D02*
X90905837Y-86081124D01*
X91641227Y-86855220D02*
X91563818Y-86893924D01*
X91563818Y-86893924D02*
X91408999Y-86893924D01*
X91408999Y-86893924D02*
X91331589Y-86855220D01*
X91331589Y-86855220D02*
X91292885Y-86777810D01*
X91292885Y-86777810D02*
X91292885Y-86468172D01*
X91292885Y-86468172D02*
X91331589Y-86390762D01*
X91331589Y-86390762D02*
X91408999Y-86352058D01*
X91408999Y-86352058D02*
X91563818Y-86352058D01*
X91563818Y-86352058D02*
X91641227Y-86390762D01*
X91641227Y-86390762D02*
X91679932Y-86468172D01*
X91679932Y-86468172D02*
X91679932Y-86545581D01*
X91679932Y-86545581D02*
X91292885Y-86622991D01*
X92608847Y-86855220D02*
X92724961Y-86893924D01*
X92724961Y-86893924D02*
X92918485Y-86893924D01*
X92918485Y-86893924D02*
X92995894Y-86855220D01*
X92995894Y-86855220D02*
X93034599Y-86816515D01*
X93034599Y-86816515D02*
X93073304Y-86739105D01*
X93073304Y-86739105D02*
X93073304Y-86661696D01*
X93073304Y-86661696D02*
X93034599Y-86584286D01*
X93034599Y-86584286D02*
X92995894Y-86545581D01*
X92995894Y-86545581D02*
X92918485Y-86506877D01*
X92918485Y-86506877D02*
X92763666Y-86468172D01*
X92763666Y-86468172D02*
X92686256Y-86429467D01*
X92686256Y-86429467D02*
X92647551Y-86390762D01*
X92647551Y-86390762D02*
X92608847Y-86313353D01*
X92608847Y-86313353D02*
X92608847Y-86235943D01*
X92608847Y-86235943D02*
X92647551Y-86158534D01*
X92647551Y-86158534D02*
X92686256Y-86119829D01*
X92686256Y-86119829D02*
X92763666Y-86081124D01*
X92763666Y-86081124D02*
X92957189Y-86081124D01*
X92957189Y-86081124D02*
X93073304Y-86119829D01*
X93731284Y-86855220D02*
X93653875Y-86893924D01*
X93653875Y-86893924D02*
X93499056Y-86893924D01*
X93499056Y-86893924D02*
X93421646Y-86855220D01*
X93421646Y-86855220D02*
X93382942Y-86777810D01*
X93382942Y-86777810D02*
X93382942Y-86468172D01*
X93382942Y-86468172D02*
X93421646Y-86390762D01*
X93421646Y-86390762D02*
X93499056Y-86352058D01*
X93499056Y-86352058D02*
X93653875Y-86352058D01*
X93653875Y-86352058D02*
X93731284Y-86390762D01*
X93731284Y-86390762D02*
X93769989Y-86468172D01*
X93769989Y-86468172D02*
X93769989Y-86545581D01*
X93769989Y-86545581D02*
X93382942Y-86622991D01*
X94234447Y-86893924D02*
X94157037Y-86855220D01*
X94157037Y-86855220D02*
X94118332Y-86777810D01*
X94118332Y-86777810D02*
X94118332Y-86081124D01*
X94853722Y-86855220D02*
X94776313Y-86893924D01*
X94776313Y-86893924D02*
X94621494Y-86893924D01*
X94621494Y-86893924D02*
X94544084Y-86855220D01*
X94544084Y-86855220D02*
X94505380Y-86777810D01*
X94505380Y-86777810D02*
X94505380Y-86468172D01*
X94505380Y-86468172D02*
X94544084Y-86390762D01*
X94544084Y-86390762D02*
X94621494Y-86352058D01*
X94621494Y-86352058D02*
X94776313Y-86352058D01*
X94776313Y-86352058D02*
X94853722Y-86390762D01*
X94853722Y-86390762D02*
X94892427Y-86468172D01*
X94892427Y-86468172D02*
X94892427Y-86545581D01*
X94892427Y-86545581D02*
X94505380Y-86622991D01*
X95589113Y-86855220D02*
X95511704Y-86893924D01*
X95511704Y-86893924D02*
X95356885Y-86893924D01*
X95356885Y-86893924D02*
X95279475Y-86855220D01*
X95279475Y-86855220D02*
X95240770Y-86816515D01*
X95240770Y-86816515D02*
X95202066Y-86739105D01*
X95202066Y-86739105D02*
X95202066Y-86506877D01*
X95202066Y-86506877D02*
X95240770Y-86429467D01*
X95240770Y-86429467D02*
X95279475Y-86390762D01*
X95279475Y-86390762D02*
X95356885Y-86352058D01*
X95356885Y-86352058D02*
X95511704Y-86352058D01*
X95511704Y-86352058D02*
X95589113Y-86390762D01*
X95821342Y-86352058D02*
X96130980Y-86352058D01*
X95937456Y-86081124D02*
X95937456Y-86777810D01*
X95937456Y-86777810D02*
X95976161Y-86855220D01*
X95976161Y-86855220D02*
X96053571Y-86893924D01*
X96053571Y-86893924D02*
X96130980Y-86893924D01*
X69738371Y-96236010D02*
X70125418Y-96236010D01*
X69660961Y-96468238D02*
X69931894Y-95655438D01*
X69931894Y-95655438D02*
X70202828Y-96468238D01*
X70822104Y-95926372D02*
X70822104Y-96468238D01*
X70473761Y-95926372D02*
X70473761Y-96352124D01*
X70473761Y-96352124D02*
X70512466Y-96429534D01*
X70512466Y-96429534D02*
X70589876Y-96468238D01*
X70589876Y-96468238D02*
X70705990Y-96468238D01*
X70705990Y-96468238D02*
X70783399Y-96429534D01*
X70783399Y-96429534D02*
X70822104Y-96390829D01*
X71093037Y-95926372D02*
X71402675Y-95926372D01*
X71209151Y-95655438D02*
X71209151Y-96352124D01*
X71209151Y-96352124D02*
X71247856Y-96429534D01*
X71247856Y-96429534D02*
X71325266Y-96468238D01*
X71325266Y-96468238D02*
X71402675Y-96468238D01*
X71789723Y-96468238D02*
X71712313Y-96429534D01*
X71712313Y-96429534D02*
X71673608Y-96390829D01*
X71673608Y-96390829D02*
X71634904Y-96313419D01*
X71634904Y-96313419D02*
X71634904Y-96081191D01*
X71634904Y-96081191D02*
X71673608Y-96003781D01*
X71673608Y-96003781D02*
X71712313Y-95965076D01*
X71712313Y-95965076D02*
X71789723Y-95926372D01*
X71789723Y-95926372D02*
X71905837Y-95926372D01*
X71905837Y-95926372D02*
X71983246Y-95965076D01*
X71983246Y-95965076D02*
X72021951Y-96003781D01*
X72021951Y-96003781D02*
X72060656Y-96081191D01*
X72060656Y-96081191D02*
X72060656Y-96313419D01*
X72060656Y-96313419D02*
X72021951Y-96390829D01*
X72021951Y-96390829D02*
X71983246Y-96429534D01*
X71983246Y-96429534D02*
X71905837Y-96468238D01*
X71905837Y-96468238D02*
X71789723Y-96468238D01*
X72408998Y-96468238D02*
X72408998Y-95926372D01*
X72408998Y-96003781D02*
X72447703Y-95965076D01*
X72447703Y-95965076D02*
X72525113Y-95926372D01*
X72525113Y-95926372D02*
X72641227Y-95926372D01*
X72641227Y-95926372D02*
X72718636Y-95965076D01*
X72718636Y-95965076D02*
X72757341Y-96042486D01*
X72757341Y-96042486D02*
X72757341Y-96468238D01*
X72757341Y-96042486D02*
X72796046Y-95965076D01*
X72796046Y-95965076D02*
X72873455Y-95926372D01*
X72873455Y-95926372D02*
X72989570Y-95926372D01*
X72989570Y-95926372D02*
X73066979Y-95965076D01*
X73066979Y-95965076D02*
X73105684Y-96042486D01*
X73105684Y-96042486D02*
X73105684Y-96468238D01*
X73841074Y-96468238D02*
X73841074Y-96042486D01*
X73841074Y-96042486D02*
X73802369Y-95965076D01*
X73802369Y-95965076D02*
X73724960Y-95926372D01*
X73724960Y-95926372D02*
X73570141Y-95926372D01*
X73570141Y-95926372D02*
X73492731Y-95965076D01*
X73841074Y-96429534D02*
X73763665Y-96468238D01*
X73763665Y-96468238D02*
X73570141Y-96468238D01*
X73570141Y-96468238D02*
X73492731Y-96429534D01*
X73492731Y-96429534D02*
X73454027Y-96352124D01*
X73454027Y-96352124D02*
X73454027Y-96274714D01*
X73454027Y-96274714D02*
X73492731Y-96197305D01*
X73492731Y-96197305D02*
X73570141Y-96158600D01*
X73570141Y-96158600D02*
X73763665Y-96158600D01*
X73763665Y-96158600D02*
X73841074Y-96119895D01*
X74112007Y-95926372D02*
X74421645Y-95926372D01*
X74228121Y-95655438D02*
X74228121Y-96352124D01*
X74228121Y-96352124D02*
X74266826Y-96429534D01*
X74266826Y-96429534D02*
X74344236Y-96468238D01*
X74344236Y-96468238D02*
X74421645Y-96468238D01*
X75002216Y-96429534D02*
X74924807Y-96468238D01*
X74924807Y-96468238D02*
X74769988Y-96468238D01*
X74769988Y-96468238D02*
X74692578Y-96429534D01*
X74692578Y-96429534D02*
X74653874Y-96352124D01*
X74653874Y-96352124D02*
X74653874Y-96042486D01*
X74653874Y-96042486D02*
X74692578Y-95965076D01*
X74692578Y-95965076D02*
X74769988Y-95926372D01*
X74769988Y-95926372D02*
X74924807Y-95926372D01*
X74924807Y-95926372D02*
X75002216Y-95965076D01*
X75002216Y-95965076D02*
X75040921Y-96042486D01*
X75040921Y-96042486D02*
X75040921Y-96119895D01*
X75040921Y-96119895D02*
X74653874Y-96197305D01*
X75737607Y-96468238D02*
X75737607Y-95655438D01*
X75737607Y-96429534D02*
X75660198Y-96468238D01*
X75660198Y-96468238D02*
X75505379Y-96468238D01*
X75505379Y-96468238D02*
X75427969Y-96429534D01*
X75427969Y-96429534D02*
X75389264Y-96390829D01*
X75389264Y-96390829D02*
X75350560Y-96313419D01*
X75350560Y-96313419D02*
X75350560Y-96081191D01*
X75350560Y-96081191D02*
X75389264Y-96003781D01*
X75389264Y-96003781D02*
X75427969Y-95965076D01*
X75427969Y-95965076D02*
X75505379Y-95926372D01*
X75505379Y-95926372D02*
X75660198Y-95926372D01*
X75660198Y-95926372D02*
X75737607Y-95965076D01*
X77130978Y-96468238D02*
X76743930Y-96468238D01*
X76743930Y-96468238D02*
X76743930Y-95655438D01*
X77750254Y-96468238D02*
X77750254Y-96042486D01*
X77750254Y-96042486D02*
X77711549Y-95965076D01*
X77711549Y-95965076D02*
X77634140Y-95926372D01*
X77634140Y-95926372D02*
X77479321Y-95926372D01*
X77479321Y-95926372D02*
X77401911Y-95965076D01*
X77750254Y-96429534D02*
X77672845Y-96468238D01*
X77672845Y-96468238D02*
X77479321Y-96468238D01*
X77479321Y-96468238D02*
X77401911Y-96429534D01*
X77401911Y-96429534D02*
X77363207Y-96352124D01*
X77363207Y-96352124D02*
X77363207Y-96274714D01*
X77363207Y-96274714D02*
X77401911Y-96197305D01*
X77401911Y-96197305D02*
X77479321Y-96158600D01*
X77479321Y-96158600D02*
X77672845Y-96158600D01*
X77672845Y-96158600D02*
X77750254Y-96119895D01*
X78137301Y-96468238D02*
X78137301Y-95655438D01*
X78137301Y-95965076D02*
X78214711Y-95926372D01*
X78214711Y-95926372D02*
X78369530Y-95926372D01*
X78369530Y-95926372D02*
X78446939Y-95965076D01*
X78446939Y-95965076D02*
X78485644Y-96003781D01*
X78485644Y-96003781D02*
X78524349Y-96081191D01*
X78524349Y-96081191D02*
X78524349Y-96313419D01*
X78524349Y-96313419D02*
X78485644Y-96390829D01*
X78485644Y-96390829D02*
X78446939Y-96429534D01*
X78446939Y-96429534D02*
X78369530Y-96468238D01*
X78369530Y-96468238D02*
X78214711Y-96468238D01*
X78214711Y-96468238D02*
X78137301Y-96429534D01*
X79414558Y-95655438D02*
X79608082Y-96468238D01*
X79608082Y-96468238D02*
X79762901Y-95887667D01*
X79762901Y-95887667D02*
X79917720Y-96468238D01*
X79917720Y-96468238D02*
X80111244Y-95655438D01*
X80769224Y-96468238D02*
X80769224Y-96042486D01*
X80769224Y-96042486D02*
X80730519Y-95965076D01*
X80730519Y-95965076D02*
X80653110Y-95926372D01*
X80653110Y-95926372D02*
X80498291Y-95926372D01*
X80498291Y-95926372D02*
X80420881Y-95965076D01*
X80769224Y-96429534D02*
X80691815Y-96468238D01*
X80691815Y-96468238D02*
X80498291Y-96468238D01*
X80498291Y-96468238D02*
X80420881Y-96429534D01*
X80420881Y-96429534D02*
X80382177Y-96352124D01*
X80382177Y-96352124D02*
X80382177Y-96274714D01*
X80382177Y-96274714D02*
X80420881Y-96197305D01*
X80420881Y-96197305D02*
X80498291Y-96158600D01*
X80498291Y-96158600D02*
X80691815Y-96158600D01*
X80691815Y-96158600D02*
X80769224Y-96119895D01*
X81117567Y-96429534D02*
X81194976Y-96468238D01*
X81194976Y-96468238D02*
X81349795Y-96468238D01*
X81349795Y-96468238D02*
X81427205Y-96429534D01*
X81427205Y-96429534D02*
X81465909Y-96352124D01*
X81465909Y-96352124D02*
X81465909Y-96313419D01*
X81465909Y-96313419D02*
X81427205Y-96236010D01*
X81427205Y-96236010D02*
X81349795Y-96197305D01*
X81349795Y-96197305D02*
X81233681Y-96197305D01*
X81233681Y-96197305D02*
X81156271Y-96158600D01*
X81156271Y-96158600D02*
X81117567Y-96081191D01*
X81117567Y-96081191D02*
X81117567Y-96042486D01*
X81117567Y-96042486D02*
X81156271Y-95965076D01*
X81156271Y-95965076D02*
X81233681Y-95926372D01*
X81233681Y-95926372D02*
X81349795Y-95926372D01*
X81349795Y-95926372D02*
X81427205Y-95965076D01*
X81814252Y-96468238D02*
X81814252Y-95655438D01*
X82162595Y-96468238D02*
X82162595Y-96042486D01*
X82162595Y-96042486D02*
X82123890Y-95965076D01*
X82123890Y-95965076D02*
X82046481Y-95926372D01*
X82046481Y-95926372D02*
X81930367Y-95926372D01*
X81930367Y-95926372D02*
X81852957Y-95965076D01*
X81852957Y-95965076D02*
X81814252Y-96003781D01*
X82549642Y-96468238D02*
X82549642Y-95926372D01*
X82549642Y-95655438D02*
X82510938Y-95694143D01*
X82510938Y-95694143D02*
X82549642Y-95732848D01*
X82549642Y-95732848D02*
X82588347Y-95694143D01*
X82588347Y-95694143D02*
X82549642Y-95655438D01*
X82549642Y-95655438D02*
X82549642Y-95732848D01*
X82936690Y-95926372D02*
X82936690Y-96468238D01*
X82936690Y-96003781D02*
X82975395Y-95965076D01*
X82975395Y-95965076D02*
X83052805Y-95926372D01*
X83052805Y-95926372D02*
X83168919Y-95926372D01*
X83168919Y-95926372D02*
X83246328Y-95965076D01*
X83246328Y-95965076D02*
X83285033Y-96042486D01*
X83285033Y-96042486D02*
X83285033Y-96468238D01*
X84020423Y-95926372D02*
X84020423Y-96584353D01*
X84020423Y-96584353D02*
X83981718Y-96661762D01*
X83981718Y-96661762D02*
X83943014Y-96700467D01*
X83943014Y-96700467D02*
X83865604Y-96739172D01*
X83865604Y-96739172D02*
X83749490Y-96739172D01*
X83749490Y-96739172D02*
X83672080Y-96700467D01*
X84020423Y-96429534D02*
X83943014Y-96468238D01*
X83943014Y-96468238D02*
X83788195Y-96468238D01*
X83788195Y-96468238D02*
X83710785Y-96429534D01*
X83710785Y-96429534D02*
X83672080Y-96390829D01*
X83672080Y-96390829D02*
X83633376Y-96313419D01*
X83633376Y-96313419D02*
X83633376Y-96081191D01*
X83633376Y-96081191D02*
X83672080Y-96003781D01*
X83672080Y-96003781D02*
X83710785Y-95965076D01*
X83710785Y-95965076D02*
X83788195Y-95926372D01*
X83788195Y-95926372D02*
X83943014Y-95926372D01*
X83943014Y-95926372D02*
X84020423Y-95965076D01*
X69777075Y-97351048D02*
X70048009Y-97351048D01*
X70164123Y-97776800D02*
X69777075Y-97776800D01*
X69777075Y-97776800D02*
X69777075Y-96964000D01*
X69777075Y-96964000D02*
X70164123Y-96964000D01*
X70512465Y-97776800D02*
X70512465Y-96964000D01*
X70512465Y-96964000D02*
X70705989Y-96964000D01*
X70705989Y-96964000D02*
X70822103Y-97002705D01*
X70822103Y-97002705D02*
X70899513Y-97080115D01*
X70899513Y-97080115D02*
X70938218Y-97157524D01*
X70938218Y-97157524D02*
X70976922Y-97312343D01*
X70976922Y-97312343D02*
X70976922Y-97428457D01*
X70976922Y-97428457D02*
X70938218Y-97583276D01*
X70938218Y-97583276D02*
X70899513Y-97660686D01*
X70899513Y-97660686D02*
X70822103Y-97738096D01*
X70822103Y-97738096D02*
X70705989Y-97776800D01*
X70705989Y-97776800D02*
X70512465Y-97776800D01*
X71325265Y-97351048D02*
X71596199Y-97351048D01*
X71712313Y-97776800D02*
X71325265Y-97776800D01*
X71325265Y-97776800D02*
X71325265Y-96964000D01*
X71325265Y-96964000D02*
X71712313Y-96964000D01*
X72021951Y-97738096D02*
X72138065Y-97776800D01*
X72138065Y-97776800D02*
X72331589Y-97776800D01*
X72331589Y-97776800D02*
X72408998Y-97738096D01*
X72408998Y-97738096D02*
X72447703Y-97699391D01*
X72447703Y-97699391D02*
X72486408Y-97621981D01*
X72486408Y-97621981D02*
X72486408Y-97544572D01*
X72486408Y-97544572D02*
X72447703Y-97467162D01*
X72447703Y-97467162D02*
X72408998Y-97428457D01*
X72408998Y-97428457D02*
X72331589Y-97389753D01*
X72331589Y-97389753D02*
X72176770Y-97351048D01*
X72176770Y-97351048D02*
X72099360Y-97312343D01*
X72099360Y-97312343D02*
X72060655Y-97273638D01*
X72060655Y-97273638D02*
X72021951Y-97196229D01*
X72021951Y-97196229D02*
X72021951Y-97118819D01*
X72021951Y-97118819D02*
X72060655Y-97041410D01*
X72060655Y-97041410D02*
X72099360Y-97002705D01*
X72099360Y-97002705D02*
X72176770Y-96964000D01*
X72176770Y-96964000D02*
X72370293Y-96964000D01*
X72370293Y-96964000D02*
X72486408Y-97002705D01*
X73376617Y-96964000D02*
X73879779Y-96964000D01*
X73879779Y-96964000D02*
X73608845Y-97273638D01*
X73608845Y-97273638D02*
X73724960Y-97273638D01*
X73724960Y-97273638D02*
X73802369Y-97312343D01*
X73802369Y-97312343D02*
X73841074Y-97351048D01*
X73841074Y-97351048D02*
X73879779Y-97428457D01*
X73879779Y-97428457D02*
X73879779Y-97621981D01*
X73879779Y-97621981D02*
X73841074Y-97699391D01*
X73841074Y-97699391D02*
X73802369Y-97738096D01*
X73802369Y-97738096D02*
X73724960Y-97776800D01*
X73724960Y-97776800D02*
X73492731Y-97776800D01*
X73492731Y-97776800D02*
X73415322Y-97738096D01*
X73415322Y-97738096D02*
X73376617Y-97699391D01*
X74382940Y-96964000D02*
X74460350Y-96964000D01*
X74460350Y-96964000D02*
X74537759Y-97002705D01*
X74537759Y-97002705D02*
X74576464Y-97041410D01*
X74576464Y-97041410D02*
X74615169Y-97118819D01*
X74615169Y-97118819D02*
X74653874Y-97273638D01*
X74653874Y-97273638D02*
X74653874Y-97467162D01*
X74653874Y-97467162D02*
X74615169Y-97621981D01*
X74615169Y-97621981D02*
X74576464Y-97699391D01*
X74576464Y-97699391D02*
X74537759Y-97738096D01*
X74537759Y-97738096D02*
X74460350Y-97776800D01*
X74460350Y-97776800D02*
X74382940Y-97776800D01*
X74382940Y-97776800D02*
X74305531Y-97738096D01*
X74305531Y-97738096D02*
X74266826Y-97699391D01*
X74266826Y-97699391D02*
X74228121Y-97621981D01*
X74228121Y-97621981D02*
X74189417Y-97467162D01*
X74189417Y-97467162D02*
X74189417Y-97273638D01*
X74189417Y-97273638D02*
X74228121Y-97118819D01*
X74228121Y-97118819D02*
X74266826Y-97041410D01*
X74266826Y-97041410D02*
X74305531Y-97002705D01*
X74305531Y-97002705D02*
X74382940Y-96964000D01*
X75427969Y-97776800D02*
X74963512Y-97776800D01*
X75195740Y-97776800D02*
X75195740Y-96964000D01*
X75195740Y-96964000D02*
X75118331Y-97080115D01*
X75118331Y-97080115D02*
X75040921Y-97157524D01*
X75040921Y-97157524D02*
X74963512Y-97196229D01*
X76395587Y-97776800D02*
X76395587Y-96964000D01*
X76395587Y-96964000D02*
X76705225Y-96964000D01*
X76705225Y-96964000D02*
X76782635Y-97002705D01*
X76782635Y-97002705D02*
X76821340Y-97041410D01*
X76821340Y-97041410D02*
X76860044Y-97118819D01*
X76860044Y-97118819D02*
X76860044Y-97234934D01*
X76860044Y-97234934D02*
X76821340Y-97312343D01*
X76821340Y-97312343D02*
X76782635Y-97351048D01*
X76782635Y-97351048D02*
X76705225Y-97389753D01*
X76705225Y-97389753D02*
X76395587Y-97389753D01*
X77208387Y-97776800D02*
X77208387Y-97234934D01*
X77208387Y-97389753D02*
X77247092Y-97312343D01*
X77247092Y-97312343D02*
X77285797Y-97273638D01*
X77285797Y-97273638D02*
X77363206Y-97234934D01*
X77363206Y-97234934D02*
X77440616Y-97234934D01*
X77827664Y-97776800D02*
X77750254Y-97738096D01*
X77750254Y-97738096D02*
X77711549Y-97699391D01*
X77711549Y-97699391D02*
X77672845Y-97621981D01*
X77672845Y-97621981D02*
X77672845Y-97389753D01*
X77672845Y-97389753D02*
X77711549Y-97312343D01*
X77711549Y-97312343D02*
X77750254Y-97273638D01*
X77750254Y-97273638D02*
X77827664Y-97234934D01*
X77827664Y-97234934D02*
X77943778Y-97234934D01*
X77943778Y-97234934D02*
X78021187Y-97273638D01*
X78021187Y-97273638D02*
X78059892Y-97312343D01*
X78059892Y-97312343D02*
X78098597Y-97389753D01*
X78098597Y-97389753D02*
X78098597Y-97621981D01*
X78098597Y-97621981D02*
X78059892Y-97699391D01*
X78059892Y-97699391D02*
X78021187Y-97738096D01*
X78021187Y-97738096D02*
X77943778Y-97776800D01*
X77943778Y-97776800D02*
X77827664Y-97776800D01*
X78446939Y-97234934D02*
X78446939Y-97931619D01*
X78446939Y-97931619D02*
X78408235Y-98009029D01*
X78408235Y-98009029D02*
X78330825Y-98047734D01*
X78330825Y-98047734D02*
X78292120Y-98047734D01*
X78446939Y-96964000D02*
X78408235Y-97002705D01*
X78408235Y-97002705D02*
X78446939Y-97041410D01*
X78446939Y-97041410D02*
X78485644Y-97002705D01*
X78485644Y-97002705D02*
X78446939Y-96964000D01*
X78446939Y-96964000D02*
X78446939Y-97041410D01*
X79143625Y-97738096D02*
X79066216Y-97776800D01*
X79066216Y-97776800D02*
X78911397Y-97776800D01*
X78911397Y-97776800D02*
X78833987Y-97738096D01*
X78833987Y-97738096D02*
X78795283Y-97660686D01*
X78795283Y-97660686D02*
X78795283Y-97351048D01*
X78795283Y-97351048D02*
X78833987Y-97273638D01*
X78833987Y-97273638D02*
X78911397Y-97234934D01*
X78911397Y-97234934D02*
X79066216Y-97234934D01*
X79066216Y-97234934D02*
X79143625Y-97273638D01*
X79143625Y-97273638D02*
X79182330Y-97351048D01*
X79182330Y-97351048D02*
X79182330Y-97428457D01*
X79182330Y-97428457D02*
X78795283Y-97505867D01*
X79879016Y-97738096D02*
X79801607Y-97776800D01*
X79801607Y-97776800D02*
X79646788Y-97776800D01*
X79646788Y-97776800D02*
X79569378Y-97738096D01*
X79569378Y-97738096D02*
X79530673Y-97699391D01*
X79530673Y-97699391D02*
X79491969Y-97621981D01*
X79491969Y-97621981D02*
X79491969Y-97389753D01*
X79491969Y-97389753D02*
X79530673Y-97312343D01*
X79530673Y-97312343D02*
X79569378Y-97273638D01*
X79569378Y-97273638D02*
X79646788Y-97234934D01*
X79646788Y-97234934D02*
X79801607Y-97234934D01*
X79801607Y-97234934D02*
X79879016Y-97273638D01*
X80111245Y-97234934D02*
X80420883Y-97234934D01*
X80227359Y-96964000D02*
X80227359Y-97660686D01*
X80227359Y-97660686D02*
X80266064Y-97738096D01*
X80266064Y-97738096D02*
X80343474Y-97776800D01*
X80343474Y-97776800D02*
X80420883Y-97776800D01*
X81465911Y-96964000D02*
X81543321Y-96964000D01*
X81543321Y-96964000D02*
X81620730Y-97002705D01*
X81620730Y-97002705D02*
X81659435Y-97041410D01*
X81659435Y-97041410D02*
X81698140Y-97118819D01*
X81698140Y-97118819D02*
X81736845Y-97273638D01*
X81736845Y-97273638D02*
X81736845Y-97467162D01*
X81736845Y-97467162D02*
X81698140Y-97621981D01*
X81698140Y-97621981D02*
X81659435Y-97699391D01*
X81659435Y-97699391D02*
X81620730Y-97738096D01*
X81620730Y-97738096D02*
X81543321Y-97776800D01*
X81543321Y-97776800D02*
X81465911Y-97776800D01*
X81465911Y-97776800D02*
X81388502Y-97738096D01*
X81388502Y-97738096D02*
X81349797Y-97699391D01*
X81349797Y-97699391D02*
X81311092Y-97621981D01*
X81311092Y-97621981D02*
X81272388Y-97467162D01*
X81272388Y-97467162D02*
X81272388Y-97273638D01*
X81272388Y-97273638D02*
X81311092Y-97118819D01*
X81311092Y-97118819D02*
X81349797Y-97041410D01*
X81349797Y-97041410D02*
X81388502Y-97002705D01*
X81388502Y-97002705D02*
X81465911Y-96964000D01*
X82046483Y-97041410D02*
X82085187Y-97002705D01*
X82085187Y-97002705D02*
X82162597Y-96964000D01*
X82162597Y-96964000D02*
X82356121Y-96964000D01*
X82356121Y-96964000D02*
X82433530Y-97002705D01*
X82433530Y-97002705D02*
X82472235Y-97041410D01*
X82472235Y-97041410D02*
X82510940Y-97118819D01*
X82510940Y-97118819D02*
X82510940Y-97196229D01*
X82510940Y-97196229D02*
X82472235Y-97312343D01*
X82472235Y-97312343D02*
X82007778Y-97776800D01*
X82007778Y-97776800D02*
X82510940Y-97776800D01*
X70241532Y-99085362D02*
X69970599Y-98698315D01*
X69777075Y-99085362D02*
X69777075Y-98272562D01*
X69777075Y-98272562D02*
X70086713Y-98272562D01*
X70086713Y-98272562D02*
X70164123Y-98311267D01*
X70164123Y-98311267D02*
X70202828Y-98349972D01*
X70202828Y-98349972D02*
X70241532Y-98427381D01*
X70241532Y-98427381D02*
X70241532Y-98543496D01*
X70241532Y-98543496D02*
X70202828Y-98620905D01*
X70202828Y-98620905D02*
X70164123Y-98659610D01*
X70164123Y-98659610D02*
X70086713Y-98698315D01*
X70086713Y-98698315D02*
X69777075Y-98698315D01*
X70899513Y-99046658D02*
X70822104Y-99085362D01*
X70822104Y-99085362D02*
X70667285Y-99085362D01*
X70667285Y-99085362D02*
X70589875Y-99046658D01*
X70589875Y-99046658D02*
X70551171Y-98969248D01*
X70551171Y-98969248D02*
X70551171Y-98659610D01*
X70551171Y-98659610D02*
X70589875Y-98582200D01*
X70589875Y-98582200D02*
X70667285Y-98543496D01*
X70667285Y-98543496D02*
X70822104Y-98543496D01*
X70822104Y-98543496D02*
X70899513Y-98582200D01*
X70899513Y-98582200D02*
X70938218Y-98659610D01*
X70938218Y-98659610D02*
X70938218Y-98737019D01*
X70938218Y-98737019D02*
X70551171Y-98814429D01*
X71209152Y-98543496D02*
X71402676Y-99085362D01*
X71402676Y-99085362D02*
X71596199Y-98543496D01*
X72950866Y-99085362D02*
X72486409Y-99085362D01*
X72718637Y-99085362D02*
X72718637Y-98272562D01*
X72718637Y-98272562D02*
X72641228Y-98388677D01*
X72641228Y-98388677D02*
X72563818Y-98466086D01*
X72563818Y-98466086D02*
X72486409Y-98504791D01*
X73260504Y-98853134D02*
X73647551Y-98853134D01*
X73183094Y-99085362D02*
X73454027Y-98272562D01*
X73454027Y-98272562D02*
X73724961Y-99085362D01*
X69777075Y-100393924D02*
X69777075Y-99581124D01*
X69777075Y-99581124D02*
X70048009Y-100161696D01*
X70048009Y-100161696D02*
X70318942Y-99581124D01*
X70318942Y-99581124D02*
X70318942Y-100393924D01*
X70705989Y-100393924D02*
X70705989Y-99581124D01*
X70705989Y-99968172D02*
X71170446Y-99968172D01*
X71170446Y-100393924D02*
X71170446Y-99581124D01*
X120364533Y-91893924D02*
X120093600Y-91506877D01*
X119900076Y-91893924D02*
X119900076Y-91081124D01*
X119900076Y-91081124D02*
X120209714Y-91081124D01*
X120209714Y-91081124D02*
X120287124Y-91119829D01*
X120287124Y-91119829D02*
X120325829Y-91158534D01*
X120325829Y-91158534D02*
X120364533Y-91235943D01*
X120364533Y-91235943D02*
X120364533Y-91352058D01*
X120364533Y-91352058D02*
X120325829Y-91429467D01*
X120325829Y-91429467D02*
X120287124Y-91468172D01*
X120287124Y-91468172D02*
X120209714Y-91506877D01*
X120209714Y-91506877D02*
X119900076Y-91506877D01*
X120674172Y-91158534D02*
X120712876Y-91119829D01*
X120712876Y-91119829D02*
X120790286Y-91081124D01*
X120790286Y-91081124D02*
X120983810Y-91081124D01*
X120983810Y-91081124D02*
X121061219Y-91119829D01*
X121061219Y-91119829D02*
X121099924Y-91158534D01*
X121099924Y-91158534D02*
X121138629Y-91235943D01*
X121138629Y-91235943D02*
X121138629Y-91313353D01*
X121138629Y-91313353D02*
X121099924Y-91429467D01*
X121099924Y-91429467D02*
X120635467Y-91893924D01*
X120635467Y-91893924D02*
X121138629Y-91893924D01*
X91364533Y-72893924D02*
X91093600Y-72506877D01*
X90900076Y-72893924D02*
X90900076Y-72081124D01*
X90900076Y-72081124D02*
X91209714Y-72081124D01*
X91209714Y-72081124D02*
X91287124Y-72119829D01*
X91287124Y-72119829D02*
X91325829Y-72158534D01*
X91325829Y-72158534D02*
X91364533Y-72235943D01*
X91364533Y-72235943D02*
X91364533Y-72352058D01*
X91364533Y-72352058D02*
X91325829Y-72429467D01*
X91325829Y-72429467D02*
X91287124Y-72468172D01*
X91287124Y-72468172D02*
X91209714Y-72506877D01*
X91209714Y-72506877D02*
X90900076Y-72506877D01*
X92061219Y-72352058D02*
X92061219Y-72893924D01*
X91867695Y-72042420D02*
X91674172Y-72622991D01*
X91674172Y-72622991D02*
X92177333Y-72622991D01*
D11*
X98859440Y-99368645D02*
X99020839Y-99422444D01*
X99020839Y-99422444D02*
X99289837Y-99422444D01*
X99289837Y-99422444D02*
X99397436Y-99368645D01*
X99397436Y-99368645D02*
X99451236Y-99314845D01*
X99451236Y-99314845D02*
X99505035Y-99207246D01*
X99505035Y-99207246D02*
X99505035Y-99099646D01*
X99505035Y-99099646D02*
X99451236Y-98992047D01*
X99451236Y-98992047D02*
X99397436Y-98938248D01*
X99397436Y-98938248D02*
X99289837Y-98884448D01*
X99289837Y-98884448D02*
X99074638Y-98830648D01*
X99074638Y-98830648D02*
X98967039Y-98776849D01*
X98967039Y-98776849D02*
X98913240Y-98723049D01*
X98913240Y-98723049D02*
X98859440Y-98615450D01*
X98859440Y-98615450D02*
X98859440Y-98507851D01*
X98859440Y-98507851D02*
X98913240Y-98400251D01*
X98913240Y-98400251D02*
X98967039Y-98346452D01*
X98967039Y-98346452D02*
X99074638Y-98292652D01*
X99074638Y-98292652D02*
X99343637Y-98292652D01*
X99343637Y-98292652D02*
X99505035Y-98346452D01*
X99881632Y-98292652D02*
X100150630Y-99422444D01*
X100150630Y-99422444D02*
X100365829Y-98615450D01*
X100365829Y-98615450D02*
X100581027Y-99422444D01*
X100581027Y-99422444D02*
X100850026Y-98292652D01*
X101872218Y-99422444D02*
X101226623Y-99422444D01*
X101549421Y-99422444D02*
X101549421Y-98292652D01*
X101549421Y-98292652D02*
X101441821Y-98454051D01*
X101441821Y-98454051D02*
X101334222Y-98561650D01*
X101334222Y-98561650D02*
X101226623Y-98615450D01*
D12*
X61261905Y-80657419D02*
X61261905Y-79657419D01*
X61261905Y-79657419D02*
X61500000Y-79657419D01*
X61500000Y-79657419D02*
X61642857Y-79705038D01*
X61642857Y-79705038D02*
X61738095Y-79800276D01*
X61738095Y-79800276D02*
X61785714Y-79895514D01*
X61785714Y-79895514D02*
X61833333Y-80085990D01*
X61833333Y-80085990D02*
X61833333Y-80228847D01*
X61833333Y-80228847D02*
X61785714Y-80419323D01*
X61785714Y-80419323D02*
X61738095Y-80514561D01*
X61738095Y-80514561D02*
X61642857Y-80609800D01*
X61642857Y-80609800D02*
X61500000Y-80657419D01*
X61500000Y-80657419D02*
X61261905Y-80657419D01*
X62214286Y-79752657D02*
X62261905Y-79705038D01*
X62261905Y-79705038D02*
X62357143Y-79657419D01*
X62357143Y-79657419D02*
X62595238Y-79657419D01*
X62595238Y-79657419D02*
X62690476Y-79705038D01*
X62690476Y-79705038D02*
X62738095Y-79752657D01*
X62738095Y-79752657D02*
X62785714Y-79847895D01*
X62785714Y-79847895D02*
X62785714Y-79943133D01*
X62785714Y-79943133D02*
X62738095Y-80085990D01*
X62738095Y-80085990D02*
X62166667Y-80657419D01*
X62166667Y-80657419D02*
X62785714Y-80657419D01*
D11*
X117401440Y-99876645D02*
X117562839Y-99930444D01*
X117562839Y-99930444D02*
X117831837Y-99930444D01*
X117831837Y-99930444D02*
X117939436Y-99876645D01*
X117939436Y-99876645D02*
X117993236Y-99822845D01*
X117993236Y-99822845D02*
X118047035Y-99715246D01*
X118047035Y-99715246D02*
X118047035Y-99607646D01*
X118047035Y-99607646D02*
X117993236Y-99500047D01*
X117993236Y-99500047D02*
X117939436Y-99446248D01*
X117939436Y-99446248D02*
X117831837Y-99392448D01*
X117831837Y-99392448D02*
X117616638Y-99338648D01*
X117616638Y-99338648D02*
X117509039Y-99284849D01*
X117509039Y-99284849D02*
X117455240Y-99231049D01*
X117455240Y-99231049D02*
X117401440Y-99123450D01*
X117401440Y-99123450D02*
X117401440Y-99015851D01*
X117401440Y-99015851D02*
X117455240Y-98908251D01*
X117455240Y-98908251D02*
X117509039Y-98854452D01*
X117509039Y-98854452D02*
X117616638Y-98800652D01*
X117616638Y-98800652D02*
X117885637Y-98800652D01*
X117885637Y-98800652D02*
X118047035Y-98854452D01*
X118423632Y-98800652D02*
X118692630Y-99930444D01*
X118692630Y-99930444D02*
X118907829Y-99123450D01*
X118907829Y-99123450D02*
X119123027Y-99930444D01*
X119123027Y-99930444D02*
X119392026Y-98800652D01*
X119768623Y-98908251D02*
X119822423Y-98854452D01*
X119822423Y-98854452D02*
X119930022Y-98800652D01*
X119930022Y-98800652D02*
X120199020Y-98800652D01*
X120199020Y-98800652D02*
X120306619Y-98854452D01*
X120306619Y-98854452D02*
X120360419Y-98908251D01*
X120360419Y-98908251D02*
X120414218Y-99015851D01*
X120414218Y-99015851D02*
X120414218Y-99123450D01*
X120414218Y-99123450D02*
X120360419Y-99284849D01*
X120360419Y-99284849D02*
X119714823Y-99930444D01*
X119714823Y-99930444D02*
X120414218Y-99930444D01*
D10*
X60864533Y-96393924D02*
X60593600Y-96006877D01*
X60400076Y-96393924D02*
X60400076Y-95581124D01*
X60400076Y-95581124D02*
X60709714Y-95581124D01*
X60709714Y-95581124D02*
X60787124Y-95619829D01*
X60787124Y-95619829D02*
X60825829Y-95658534D01*
X60825829Y-95658534D02*
X60864533Y-95735943D01*
X60864533Y-95735943D02*
X60864533Y-95852058D01*
X60864533Y-95852058D02*
X60825829Y-95929467D01*
X60825829Y-95929467D02*
X60787124Y-95968172D01*
X60787124Y-95968172D02*
X60709714Y-96006877D01*
X60709714Y-96006877D02*
X60400076Y-96006877D01*
X61599924Y-95581124D02*
X61212876Y-95581124D01*
X61212876Y-95581124D02*
X61174172Y-95968172D01*
X61174172Y-95968172D02*
X61212876Y-95929467D01*
X61212876Y-95929467D02*
X61290286Y-95890762D01*
X61290286Y-95890762D02*
X61483810Y-95890762D01*
X61483810Y-95890762D02*
X61561219Y-95929467D01*
X61561219Y-95929467D02*
X61599924Y-95968172D01*
X61599924Y-95968172D02*
X61638629Y-96045581D01*
X61638629Y-96045581D02*
X61638629Y-96239105D01*
X61638629Y-96239105D02*
X61599924Y-96316515D01*
X61599924Y-96316515D02*
X61561219Y-96355220D01*
X61561219Y-96355220D02*
X61483810Y-96393924D01*
X61483810Y-96393924D02*
X61290286Y-96393924D01*
X61290286Y-96393924D02*
X61212876Y-96355220D01*
X61212876Y-96355220D02*
X61174172Y-96316515D01*
X97864533Y-72393924D02*
X97593600Y-72006877D01*
X97400076Y-72393924D02*
X97400076Y-71581124D01*
X97400076Y-71581124D02*
X97709714Y-71581124D01*
X97709714Y-71581124D02*
X97787124Y-71619829D01*
X97787124Y-71619829D02*
X97825829Y-71658534D01*
X97825829Y-71658534D02*
X97864533Y-71735943D01*
X97864533Y-71735943D02*
X97864533Y-71852058D01*
X97864533Y-71852058D02*
X97825829Y-71929467D01*
X97825829Y-71929467D02*
X97787124Y-71968172D01*
X97787124Y-71968172D02*
X97709714Y-72006877D01*
X97709714Y-72006877D02*
X97400076Y-72006877D01*
X98135467Y-71581124D02*
X98638629Y-71581124D01*
X98638629Y-71581124D02*
X98367695Y-71890762D01*
X98367695Y-71890762D02*
X98483810Y-71890762D01*
X98483810Y-71890762D02*
X98561219Y-71929467D01*
X98561219Y-71929467D02*
X98599924Y-71968172D01*
X98599924Y-71968172D02*
X98638629Y-72045581D01*
X98638629Y-72045581D02*
X98638629Y-72239105D01*
X98638629Y-72239105D02*
X98599924Y-72316515D01*
X98599924Y-72316515D02*
X98561219Y-72355220D01*
X98561219Y-72355220D02*
X98483810Y-72393924D01*
X98483810Y-72393924D02*
X98251581Y-72393924D01*
X98251581Y-72393924D02*
X98174172Y-72355220D01*
X98174172Y-72355220D02*
X98135467Y-72316515D01*
X101864533Y-90893924D02*
X101593600Y-90506877D01*
X101400076Y-90893924D02*
X101400076Y-90081124D01*
X101400076Y-90081124D02*
X101709714Y-90081124D01*
X101709714Y-90081124D02*
X101787124Y-90119829D01*
X101787124Y-90119829D02*
X101825829Y-90158534D01*
X101825829Y-90158534D02*
X101864533Y-90235943D01*
X101864533Y-90235943D02*
X101864533Y-90352058D01*
X101864533Y-90352058D02*
X101825829Y-90429467D01*
X101825829Y-90429467D02*
X101787124Y-90468172D01*
X101787124Y-90468172D02*
X101709714Y-90506877D01*
X101709714Y-90506877D02*
X101400076Y-90506877D01*
X102638629Y-90893924D02*
X102174172Y-90893924D01*
X102406400Y-90893924D02*
X102406400Y-90081124D01*
X102406400Y-90081124D02*
X102328991Y-90197239D01*
X102328991Y-90197239D02*
X102251581Y-90274648D01*
X102251581Y-90274648D02*
X102174172Y-90313353D01*
D13*
X120036040Y-80526610D02*
X120036040Y-79609549D01*
X120036040Y-79609549D02*
X119982095Y-79501659D01*
X119982095Y-79501659D02*
X119928150Y-79447715D01*
X119928150Y-79447715D02*
X119820261Y-79393770D01*
X119820261Y-79393770D02*
X119604482Y-79393770D01*
X119604482Y-79393770D02*
X119496592Y-79447715D01*
X119496592Y-79447715D02*
X119442647Y-79501659D01*
X119442647Y-79501659D02*
X119388703Y-79609549D01*
X119388703Y-79609549D02*
X119388703Y-80526610D01*
X118903199Y-80418720D02*
X118849255Y-80472665D01*
X118849255Y-80472665D02*
X118741365Y-80526610D01*
X118741365Y-80526610D02*
X118471641Y-80526610D01*
X118471641Y-80526610D02*
X118363752Y-80472665D01*
X118363752Y-80472665D02*
X118309807Y-80418720D01*
X118309807Y-80418720D02*
X118255862Y-80310831D01*
X118255862Y-80310831D02*
X118255862Y-80202941D01*
X118255862Y-80202941D02*
X118309807Y-80041107D01*
X118309807Y-80041107D02*
X118957144Y-79393770D01*
X118957144Y-79393770D02*
X118255862Y-79393770D01*
D14*
X93774151Y-80056360D02*
X93729640Y-80100871D01*
X93729640Y-80100871D02*
X93596109Y-80145381D01*
X93596109Y-80145381D02*
X93507088Y-80145381D01*
X93507088Y-80145381D02*
X93373556Y-80100871D01*
X93373556Y-80100871D02*
X93284535Y-80011850D01*
X93284535Y-80011850D02*
X93240025Y-79922829D01*
X93240025Y-79922829D02*
X93195514Y-79744787D01*
X93195514Y-79744787D02*
X93195514Y-79611255D01*
X93195514Y-79611255D02*
X93240025Y-79433213D01*
X93240025Y-79433213D02*
X93284535Y-79344192D01*
X93284535Y-79344192D02*
X93373556Y-79255171D01*
X93373556Y-79255171D02*
X93507088Y-79210661D01*
X93507088Y-79210661D02*
X93596109Y-79210661D01*
X93596109Y-79210661D02*
X93729640Y-79255171D01*
X93729640Y-79255171D02*
X93774151Y-79299682D01*
X95780025Y-80145381D02*
X95780025Y-79210661D01*
X95780025Y-79210661D02*
X96002577Y-79210661D01*
X96002577Y-79210661D02*
X96136109Y-79255171D01*
X96136109Y-79255171D02*
X96225130Y-79344192D01*
X96225130Y-79344192D02*
X96269640Y-79433213D01*
X96269640Y-79433213D02*
X96314151Y-79611255D01*
X96314151Y-79611255D02*
X96314151Y-79744787D01*
X96314151Y-79744787D02*
X96269640Y-79922829D01*
X96269640Y-79922829D02*
X96225130Y-80011850D01*
X96225130Y-80011850D02*
X96136109Y-80100871D01*
X96136109Y-80100871D02*
X96002577Y-80145381D01*
X96002577Y-80145381D02*
X95780025Y-80145381D01*
X98320025Y-79789297D02*
X99032193Y-79789297D01*
X100860025Y-79789297D02*
X101572193Y-79789297D01*
X101216109Y-80145381D02*
X101216109Y-79433213D01*
%TO.C,R2*%
D10*
X119008000Y-94000000D02*
X117992000Y-94000000D01*
%TO.C,R4*%
X92992000Y-73000000D02*
X94008000Y-73000000D01*
%TO.C,SW1*%
D15*
X85948000Y-88726000D02*
X85948000Y-89976000D01*
X85948000Y-92476000D02*
X85948000Y-94976000D01*
X85948000Y-97476000D02*
X85948000Y-98726000D01*
X86948000Y-87726000D02*
X96948000Y-87726000D01*
X89948000Y-91726000D02*
X93948000Y-91726000D01*
X89948000Y-95726000D02*
X89948000Y-91726000D01*
X93948000Y-91726000D02*
X93948000Y-95726000D01*
X93948000Y-95726000D02*
X89948000Y-95726000D01*
X96948000Y-99726000D02*
X86948000Y-99726000D01*
X97948000Y-88726000D02*
X97948000Y-89976000D01*
X97948000Y-92476000D02*
X97948000Y-94976000D01*
X97948000Y-97476000D02*
X97948000Y-98726000D01*
X85948000Y-88726000D02*
G75*
G02*
X86948000Y-87726000I999999J1D01*
G01*
X86948000Y-99726000D02*
G75*
G02*
X85948000Y-98726000I-1J999999D01*
G01*
X96948000Y-87726000D02*
G75*
G02*
X97948000Y-88726000I0J-1000000D01*
G01*
X97948000Y-98726000D02*
G75*
G02*
X96948000Y-99726000I-1000000J0D01*
G01*
X95483531Y-93726000D02*
G75*
G02*
X88412469Y-93726000I-3535531J0D01*
G01*
X88412469Y-93726000D02*
G75*
G02*
X95483531Y-93726000I3535531J0D01*
G01*
%TO.C,D2*%
D12*
X71300000Y-73700000D02*
X71300000Y-73800000D01*
X53000000Y-73700000D02*
X71300000Y-73700000D01*
X53000000Y-73700000D02*
X53000000Y-94200000D01*
X71300000Y-73800000D02*
X71300000Y-94200000D01*
X53000000Y-94200000D02*
X71300000Y-94200000D01*
D16*
X57375000Y-75110000D02*
G75*
G02*
X56625000Y-75110000I-375000J0D01*
G01*
X56625000Y-75110000D02*
G75*
G02*
X57375000Y-75110000I375000J0D01*
G01*
%TO.C,SW2*%
D15*
X104490000Y-89234000D02*
X104490000Y-90484000D01*
X104490000Y-92984000D02*
X104490000Y-95484000D01*
X104490000Y-97984000D02*
X104490000Y-99234000D01*
X105490000Y-88234000D02*
X115490000Y-88234000D01*
X108490000Y-92234000D02*
X112490000Y-92234000D01*
X108490000Y-96234000D02*
X108490000Y-92234000D01*
X112490000Y-92234000D02*
X112490000Y-96234000D01*
X112490000Y-96234000D02*
X108490000Y-96234000D01*
X115490000Y-100234000D02*
X105490000Y-100234000D01*
X116490000Y-89234000D02*
X116490000Y-90484000D01*
X116490000Y-92984000D02*
X116490000Y-95484000D01*
X116490000Y-97984000D02*
X116490000Y-99234000D01*
X104490000Y-89234000D02*
G75*
G02*
X105490000Y-88234000I999999J1D01*
G01*
X105490000Y-100234000D02*
G75*
G02*
X104490000Y-99234000I-1J999999D01*
G01*
X115490000Y-88234000D02*
G75*
G02*
X116490000Y-89234000I0J-1000000D01*
G01*
X116490000Y-99234000D02*
G75*
G02*
X115490000Y-100234000I-1000000J0D01*
G01*
X114025531Y-94234000D02*
G75*
G02*
X106954469Y-94234000I-3535531J0D01*
G01*
X106954469Y-94234000D02*
G75*
G02*
X114025531Y-94234000I3535531J0D01*
G01*
%TO.C,R5*%
D10*
X59500000Y-98008000D02*
X59500000Y-96992000D01*
%TO.C,R3*%
X95492000Y-73000000D02*
X96508000Y-73000000D01*
%TO.C,R1*%
X100492000Y-93500000D02*
X101508000Y-93500000D01*
%TO.C,U2*%
D17*
X72517000Y-54483000D02*
X72517000Y-76073000D01*
X75057000Y-78613000D02*
X120015000Y-78613000D01*
X120015000Y-51943000D02*
X75057000Y-51943000D01*
X122555000Y-76073000D02*
X122555000Y-54483000D01*
X72517000Y-54483000D02*
G75*
G02*
X75057000Y-51943000I2540000J0D01*
G01*
X75057000Y-78613000D02*
G75*
G02*
X72517000Y-76073000I0J2540000D01*
G01*
X120015000Y-51943000D02*
G75*
G02*
X122555000Y-54483000I-1J-2540001D01*
G01*
X122555000Y-76073000D02*
G75*
G02*
X120015000Y-78613000I-2540001J1D01*
G01*
%TD*%
M02*
