%TF.GenerationSoftware,KiCad,Pcbnew,10.0.0*%
%TF.CreationDate,2026-04-30T23:04:54-05:00*%
%TF.ProjectId,Project_02,50726f6a-6563-4745-9f30-322e6b696361,rev?*%
%TF.SameCoordinates,Original*%
%TF.FileFunction,Copper,L1,Top*%
%TF.FilePolarity,Positive*%
%FSLAX46Y46*%
G04 Gerber Fmt 4.6, Leading zero omitted, Abs format (unit mm)*
G04 Created by KiCad (PCBNEW 10.0.0) date 2026-04-30 23:04:54*
%MOMM*%
%LPD*%
G01*
G04 APERTURE LIST*
G04 Aperture macros list*
%AMRoundRect*
0 Rectangle with rounded corners*
0 $1 Rounding radius*
0 $2 $3 $4 $5 $6 $7 $8 $9 X,Y pos of 4 corners*
0 Add a 4 corners polygon primitive as box body*
4,1,4,$2,$3,$4,$5,$6,$7,$8,$9,$2,$3,0*
0 Add four circle primitives for the rounded corners*
1,1,$1+$1,$2,$3*
1,1,$1+$1,$4,$5*
1,1,$1+$1,$6,$7*
1,1,$1+$1,$8,$9*
0 Add four rect primitives between the rounded corners*
20,1,$1+$1,$2,$3,$4,$5,0*
20,1,$1+$1,$4,$5,$6,$7,0*
20,1,$1+$1,$6,$7,$8,$9,0*
20,1,$1+$1,$8,$9,$2,$3,0*%
%AMOutline5P*
0 Free polygon, 5 corners , with rotation*
0 The origin of the aperture is its center*
0 number of corners: always 5*
0 $1 to $10 corner X, Y*
0 $11 Rotation angle, in degrees counterclockwise*
0 create outline with 5 corners*
4,1,5,$1,$2,$3,$4,$5,$6,$7,$8,$9,$10,$1,$2,$11*%
%AMOutline6P*
0 Free polygon, 6 corners , with rotation*
0 The origin of the aperture is its center*
0 number of corners: always 6*
0 $1 to $12 corner X, Y*
0 $13 Rotation angle, in degrees counterclockwise*
0 create outline with 6 corners*
4,1,6,$1,$2,$3,$4,$5,$6,$7,$8,$9,$10,$11,$12,$1,$2,$13*%
%AMOutline7P*
0 Free polygon, 7 corners , with rotation*
0 The origin of the aperture is its center*
0 number of corners: always 7*
0 $1 to $14 corner X, Y*
0 $15 Rotation angle, in degrees counterclockwise*
0 create outline with 7 corners*
4,1,7,$1,$2,$3,$4,$5,$6,$7,$8,$9,$10,$11,$12,$13,$14,$1,$2,$15*%
%AMOutline8P*
0 Free polygon, 8 corners , with rotation*
0 The origin of the aperture is its center*
0 number of corners: always 8*
0 $1 to $16 corner X, Y*
0 $17 Rotation angle, in degrees counterclockwise*
0 create outline with 8 corners*
4,1,8,$1,$2,$3,$4,$5,$6,$7,$8,$9,$10,$11,$12,$13,$14,$15,$16,$1,$2,$17*%
G04 Aperture macros list end*
%TA.AperFunction,SMDPad,CuDef*%
%ADD10R,1.031240X0.949959*%
%TD*%
%TA.AperFunction,ComponentPad*%
%ADD11C,1.960000*%
%TD*%
%TA.AperFunction,SMDPad,CuDef*%
%ADD12RoundRect,0.508000X0.000010X0.000010X-0.000010X0.000010X-0.000010X-0.000010X0.000010X-0.000010X0*%
%TD*%
%TA.AperFunction,ComponentPad*%
%ADD13C,4.445000*%
%TD*%
%TA.AperFunction,ComponentPad*%
%ADD14R,2.000000X2.000000*%
%TD*%
%TA.AperFunction,ComponentPad*%
%ADD15C,2.000000*%
%TD*%
%TA.AperFunction,SMDPad,CuDef*%
%ADD16R,0.949959X1.031240*%
%TD*%
%TA.AperFunction,ComponentPad*%
%ADD17C,1.778000*%
%TD*%
%TA.AperFunction,ComponentPad*%
%ADD18R,1.524000X1.524000*%
%TD*%
%TA.AperFunction,ComponentPad*%
%ADD19Outline8P,-0.762000X0.315631X-0.315631X0.762000X0.315631X0.762000X0.762000X0.315631X0.762000X-0.315631X0.315631X-0.762000X-0.315631X-0.762000X-0.762000X-0.315631X180.000000*%
%TD*%
%TA.AperFunction,ViaPad*%
%ADD20C,0.609600*%
%TD*%
%TA.AperFunction,Conductor*%
%ADD21C,0.381000*%
%TD*%
%TA.AperFunction,Conductor*%
%ADD22C,0.254000*%
%TD*%
G04 APERTURE END LIST*
D10*
%TO.P,R2,1,1_1*%
%TO.N,/GPIO_B2*%
X118500000Y-93199900D03*
%TO.P,R2,2,2_2*%
%TO.N,+3V3*%
X118500000Y-94800100D03*
%TD*%
%TO.P,R4,1,1_1*%
%TO.N,/I2C_SCL*%
X93500000Y-73800100D03*
%TO.P,R4,2,2_2*%
%TO.N,+3V3*%
X93500000Y-72199900D03*
%TD*%
D11*
%TO.P,SW1,1,1_1*%
%TO.N,/GPIO_B1*%
X85698000Y-91226000D03*
%TO.P,SW1,2,2_2*%
%TO.N,GND*%
X85698000Y-96226000D03*
%TO.P,SW1,3,3_3*%
%TO.N,/GPIO_B1*%
X98198000Y-91226000D03*
%TO.P,SW1,4,4_4*%
%TO.N,GND*%
X98198000Y-96226000D03*
%TD*%
D12*
%TO.P,FUD2,1,1_1*%
%TO.N,unconnected-(FUD2-Pad1)*%
X123444000Y-92456000D03*
%TD*%
%TO.P,FUD4,1,1_1*%
%TO.N,unconnected-(FUD4-Pad1)*%
X67000000Y-97000000D03*
%TD*%
D13*
%TO.P,M1,1,1_1*%
%TO.N,GNDPWR*%
X54500000Y-97500000D03*
%TD*%
D14*
%TO.P,D2,1,VMOT_1*%
%TO.N,+5V*%
X54380000Y-75110000D03*
D15*
%TO.P,D2,2,GND_2*%
%TO.N,GND*%
X54380000Y-77650000D03*
%TO.P,D2,3,2B_3*%
%TO.N,unconnected-(D2-2B-Pad3)*%
X54380000Y-80190000D03*
%TO.P,D2,4,2A_4*%
%TO.N,unconnected-(D2-2A-Pad4)*%
X54380000Y-82730000D03*
%TO.P,D2,5,1A_5*%
%TO.N,unconnected-(D2-1A-Pad5)*%
X54380000Y-85270000D03*
%TO.P,D2,6,1B_6*%
%TO.N,unconnected-(D2-1B-Pad6)*%
X54380000Y-87810000D03*
%TO.P,D2,7,VDD_7*%
%TO.N,+3V3*%
X54380000Y-90350000D03*
%TO.P,D2,8,GND_8*%
%TO.N,GND*%
X54380000Y-92890000D03*
%TO.P,D2,9,ENABLE_9*%
X69620000Y-75110000D03*
%TO.P,D2,10,MS1_10*%
X69620000Y-77650000D03*
%TO.P,D2,11,MS2_11*%
X69620000Y-80190000D03*
%TO.P,D2,12,MS3_12*%
X69620000Y-82730000D03*
%TO.P,D2,13,RESET_13*%
%TO.N,/GPIO_M2_SLEEP*%
X69620000Y-85270000D03*
%TO.P,D2,14,SLEEP_14*%
X69620000Y-87810000D03*
%TO.P,D2,15,STEP_15*%
%TO.N,/GPIO_M2_STEP*%
X69620000Y-90350000D03*
%TO.P,D2,16,DIR_16*%
%TO.N,/GPIO_M2_DIR*%
X69620000Y-92890000D03*
%TD*%
D11*
%TO.P,SW2,1,1_1*%
%TO.N,/GPIO_B2*%
X104240000Y-91734000D03*
%TO.P,SW2,2,2_2*%
%TO.N,GND*%
X104240000Y-96734000D03*
%TO.P,SW2,3,3_3*%
%TO.N,/GPIO_B2*%
X116740000Y-91734000D03*
%TO.P,SW2,4,4_4*%
%TO.N,GND*%
X116740000Y-96734000D03*
%TD*%
D16*
%TO.P,R5,1,1_1*%
%TO.N,GND*%
X60300100Y-97500000D03*
%TO.P,R5,2,2_2*%
%TO.N,GNDPWR*%
X58699900Y-97500000D03*
%TD*%
D10*
%TO.P,R3,1,1_1*%
%TO.N,/I2C_SDA*%
X96000000Y-73800100D03*
%TO.P,R3,2,2_2*%
%TO.N,+3V3*%
X96000000Y-72199900D03*
%TD*%
D13*
%TO.P,M3,1,1_1*%
%TO.N,GNDPWR*%
X123444000Y-54102000D03*
%TD*%
D12*
%TO.P,FUD1,1,1_1*%
%TO.N,unconnected-(FUD1-Pad1)*%
X124000000Y-61500000D03*
%TD*%
D10*
%TO.P,R1,1,1_1*%
%TO.N,/GPIO_B1*%
X101000000Y-94300100D03*
%TO.P,R1,2,2_2*%
%TO.N,+3V3*%
X101000000Y-92699900D03*
%TD*%
D17*
%TO.P,U2,GND,GND_GND*%
%TO.N,GND*%
X98552000Y-76708000D03*
%TO.P,U2,SCL,SCL_SCL*%
%TO.N,/I2C_SCL*%
X93472000Y-76708000D03*
%TO.P,U2,SDA,SDA_SDA*%
%TO.N,/I2C_SDA*%
X96012000Y-76708000D03*
%TO.P,U2,VCC,VCC_VCC*%
%TO.N,+3V3*%
X101092000Y-76708000D03*
%TD*%
D13*
%TO.P,M4,1,1_1*%
%TO.N,GNDPWR*%
X123444000Y-97282000D03*
%TD*%
D14*
%TO.P,D1,1,VMOT_1*%
%TO.N,+5V*%
X54380000Y-70390000D03*
D15*
%TO.P,D1,2,GND_2*%
%TO.N,GND*%
X54380000Y-67850000D03*
%TO.P,D1,3,2B_3*%
%TO.N,unconnected-(D1-2B-Pad3)*%
X54380000Y-65310000D03*
%TO.P,D1,4,2A_4*%
%TO.N,unconnected-(D1-2A-Pad4)*%
X54380000Y-62770000D03*
%TO.P,D1,5,1A_5*%
%TO.N,unconnected-(D1-1A-Pad5)*%
X54380000Y-60230000D03*
%TO.P,D1,6,1B_6*%
%TO.N,unconnected-(D1-1B-Pad6)*%
X54380000Y-57690000D03*
%TO.P,D1,7,VDD_7*%
%TO.N,+3V3*%
X54380000Y-55150000D03*
%TO.P,D1,8,GND_8*%
%TO.N,GND*%
X54380000Y-52610000D03*
%TO.P,D1,9,ENABLE_9*%
X69620000Y-70390000D03*
%TO.P,D1,10,MS1_10*%
X69620000Y-67850000D03*
%TO.P,D1,11,MS2_11*%
X69620000Y-65310000D03*
%TO.P,D1,12,MS3_12*%
X69620000Y-62770000D03*
%TO.P,D1,13,RESET_13*%
%TO.N,/GPIO_M1_SLEEP*%
X69620000Y-60230000D03*
%TO.P,D1,14,SLEEP_14*%
X69620000Y-57690000D03*
%TO.P,D1,15,STEP_15*%
%TO.N,/GPIO_M1_STEP*%
X69620000Y-55150000D03*
%TO.P,D1,16,DIR_16*%
%TO.N,/GPIO_M1_DIR*%
X69620000Y-52610000D03*
%TD*%
D18*
%TO.P,U1,P1_01,VIN_P1_01*%
%TO.N,unconnected-(U1-VIN-PadP1_01)*%
X77978000Y-56769000D03*
D19*
%TO.P,U1,P1_02,AIN6(3.3V)GPIO87_P1_02*%
%TO.N,/GPIO_M1_DIR*%
X77978000Y-59309000D03*
%TO.P,U1,P1_03,DRVVBUS_P1_03*%
%TO.N,unconnected-(U1-DRVVBUS-PadP1_03)*%
X80518000Y-56769000D03*
%TO.P,U1,P1_04,GPIO89_P1_04*%
%TO.N,/GPIO_M1_STEP*%
X80518000Y-59309000D03*
%TO.P,U1,P1_05,VBUS_P1_05*%
%TO.N,unconnected-(U1-VBUS-PadP1_05)*%
X83058000Y-56769000D03*
%TO.P,U1,P1_06,SPI0.CS_P1_06*%
%TO.N,/GPIO_M1_SLEEP*%
X83058000Y-59309000D03*
%TO.P,U1,P1_07,USB1.VIN_P1_07*%
%TO.N,unconnected-(U1-USB1.VIN-PadP1_07)*%
X85598000Y-56769000D03*
%TO.P,U1,P1_08,SPI0.CLK_P1_08*%
%TO.N,unconnected-(U1-SPI0.CLK-PadP1_08)*%
X85598000Y-59309000D03*
%TO.P,U1,P1_09,USB1.D-_P1_09*%
%TO.N,unconnected-(U1-USB1.D--PadP1_09)*%
X88138000Y-56769000D03*
%TO.P,U1,P1_10,SPI0.MISO_P1_10*%
%TO.N,unconnected-(U1-SPI0.MISO-PadP1_10)*%
X88138000Y-59309000D03*
%TO.P,U1,P1_11,USB1.D+_P1_11*%
%TO.N,unconnected-(U1-USB1.D+-PadP1_11)*%
X90678000Y-56769000D03*
%TO.P,U1,P1_12,SPI0.MOSI_P1_12*%
%TO.N,unconnected-(U1-SPI0.MOSI-PadP1_12)*%
X90678000Y-59309000D03*
%TO.P,U1,P1_13,USB1.ID_P1_13*%
%TO.N,unconnected-(U1-USB1.ID-PadP1_13)*%
X93218000Y-56769000D03*
%TO.P,U1,P1_14,3.3V@1_P1_14*%
%TO.N,+3V3*%
X93218000Y-59309000D03*
%TO.P,U1,P1_15,GND@1_P1_15*%
%TO.N,GND*%
X95758000Y-56769000D03*
%TO.P,U1,P1_16,GND@2_P1_16*%
X95758000Y-59309000D03*
%TO.P,U1,P1_17,AIN.VREF-_P1_17*%
%TO.N,unconnected-(U1-AIN.VREF--PadP1_17)*%
X98298000Y-56769000D03*
%TO.P,U1,P1_18,AIN.VREF+_P1_18*%
%TO.N,unconnected-(U1-AIN.VREF+-PadP1_18)*%
X98298000Y-59309000D03*
%TO.P,U1,P1_19,AIN0(1.8V)_P1_19*%
%TO.N,unconnected-(U1-AIN0(1.8V)-PadP1_19)*%
X100838000Y-56769000D03*
%TO.P,U1,P1_20,GPIO20_P1_20*%
%TO.N,unconnected-(U1-GPIO20-PadP1_20)*%
X100838000Y-59309000D03*
%TO.P,U1,P1_21,AIN1(1.8V)_P1_21*%
%TO.N,unconnected-(U1-AIN1(1.8V)-PadP1_21)*%
X103378000Y-56769000D03*
%TO.P,U1,P1_22,GND@3_P1_22*%
%TO.N,GND*%
X103378000Y-59309000D03*
%TO.P,U1,P1_23,AIN2(1.8V)_P1_23*%
%TO.N,unconnected-(U1-AIN2(1.8V)-PadP1_23)*%
X105918000Y-56769000D03*
%TO.P,U1,P1_24,VOUT@1_P1_24*%
%TO.N,+5V*%
X105918000Y-59309000D03*
%TO.P,U1,P1_25,AIN3(1.8V)_P1_25*%
%TO.N,unconnected-(U1-AIN3(1.8V)-PadP1_25)*%
X108458000Y-56769000D03*
%TO.P,U1,P1_26,I2C2.SDA_P1_26*%
%TO.N,unconnected-(U1-I2C2.SDA-PadP1_26)*%
X108458000Y-59309000D03*
%TO.P,U1,P1_27,AIN4(1.8V)_P1_27*%
%TO.N,unconnected-(U1-AIN4(1.8V)-PadP1_27)*%
X110998000Y-56769000D03*
%TO.P,U1,P1_28,I2C2.SCL/GPIO_P1_28*%
%TO.N,unconnected-(U1-I2C2.SCL{slash}GPIO-PadP1_28)*%
X110998000Y-59309000D03*
%TO.P,U1,P1_29,PRU0.7_P1_29*%
%TO.N,unconnected-(U1-PRU0.7-PadP1_29)*%
X113538000Y-56769000D03*
%TO.P,U1,P1_30,UART0.TX/GPIO_P1_30*%
%TO.N,unconnected-(U1-UART0.TX{slash}GPIO-PadP1_30)*%
X113538000Y-59309000D03*
%TO.P,U1,P1_31,PRU0.4/GPIO_P1_31*%
%TO.N,unconnected-(U1-PRU0.4{slash}GPIO-PadP1_31)*%
X116078000Y-56769000D03*
%TO.P,U1,P1_32,UART0.RX/GPIO_P1_32*%
%TO.N,unconnected-(U1-UART0.RX{slash}GPIO-PadP1_32)*%
X116078000Y-59309000D03*
%TO.P,U1,P1_33,PRU0.1/GPIO_P1_33*%
%TO.N,unconnected-(U1-PRU0.1{slash}GPIO-PadP1_33)*%
X118618000Y-56769000D03*
%TO.P,U1,P1_34,GPIO26_P1_34*%
%TO.N,unconnected-(U1-GPIO26-PadP1_34)*%
X118618000Y-59309000D03*
%TO.P,U1,P1_35,PRU1.10_P1_35*%
%TO.N,unconnected-(U1-PRU1.10-PadP1_35)*%
X121158000Y-56769000D03*
%TO.P,U1,P1_36,PWM0A/GPIO_P1_36*%
%TO.N,unconnected-(U1-PWM0A{slash}GPIO-PadP1_36)*%
X121158000Y-59309000D03*
D18*
%TO.P,U1,P2_01,PWM1A_P2_01*%
%TO.N,/GPIO_M2_DIR*%
X77978000Y-82169000D03*
D19*
%TO.P,U1,P2_02,GPIO59_P2_02*%
%TO.N,unconnected-(U1-GPIO59-PadP2_02)*%
X77978000Y-84709000D03*
%TO.P,U1,P2_03,GPIO23_P2_03*%
%TO.N,/GPIO_M2_STEP*%
X80518000Y-82169000D03*
%TO.P,U1,P2_04,GPIO58_P2_04*%
%TO.N,unconnected-(U1-GPIO58-PadP2_04)*%
X80518000Y-84709000D03*
%TO.P,U1,P2_05,UART4.RX_P2_05*%
%TO.N,/GPIO_M2_SLEEP*%
X83058000Y-82169000D03*
%TO.P,U1,P2_06,GPIO57_P2_06*%
%TO.N,unconnected-(U1-GPIO57-PadP2_06)*%
X83058000Y-84709000D03*
%TO.P,U1,P2_07,UART4.TX_P2_07*%
%TO.N,unconnected-(U1-UART4.TX-PadP2_07)*%
X85598000Y-82169000D03*
%TO.P,U1,P2_08,GPIO60_P2_08*%
%TO.N,unconnected-(U1-GPIO60-PadP2_08)*%
X85598000Y-84709000D03*
%TO.P,U1,P2_09,I2C1.SCL_P2_09*%
%TO.N,/I2C_SCL*%
X88138000Y-82169000D03*
%TO.P,U1,P2_10,GPIO52_P2_10*%
%TO.N,unconnected-(U1-GPIO52-PadP2_10)*%
X88138000Y-84709000D03*
%TO.P,U1,P2_11,I2C1.SDA_P2_11*%
%TO.N,/I2C_SDA*%
X90678000Y-82169000D03*
%TO.P,U1,P2_12,PWR.BTN_P2_12*%
%TO.N,unconnected-(U1-PWR.BTN-PadP2_12)*%
X90678000Y-84709000D03*
%TO.P,U1,P2_13,VOUT@2_P2_13*%
%TO.N,+5V*%
X93218000Y-82169000D03*
%TO.P,U1,P2_14,BAT.VIN_P2_14*%
%TO.N,unconnected-(U1-BAT.VIN-PadP2_14)*%
X93218000Y-84709000D03*
%TO.P,U1,P2_15,GND@4_P2_15*%
%TO.N,GND*%
X95758000Y-82169000D03*
%TO.P,U1,P2_16,BAT.TEMP_P2_16*%
%TO.N,unconnected-(U1-BAT.TEMP-PadP2_16)*%
X95758000Y-84709000D03*
%TO.P,U1,P2_17,GPIO65_P2_17*%
%TO.N,unconnected-(U1-GPIO65-PadP2_17)*%
X98298000Y-82169000D03*
%TO.P,U1,P2_18,GPIO47_P2_18*%
%TO.N,/GPIO_B1*%
X98298000Y-84709000D03*
%TO.P,U1,P2_19,GPIO27_P2_19*%
%TO.N,unconnected-(U1-GPIO27-PadP2_19)*%
X100838000Y-82169000D03*
%TO.P,U1,P2_20,GPIO64_P2_20*%
%TO.N,unconnected-(U1-GPIO64-PadP2_20)*%
X100838000Y-84709000D03*
%TO.P,U1,P2_21,GND@5_P2_21*%
%TO.N,GND*%
X103378000Y-82169000D03*
%TO.P,U1,P2_22,GPIO46_P2_22*%
%TO.N,unconnected-(U1-GPIO46-PadP2_22)*%
X103378000Y-84709000D03*
%TO.P,U1,P2_23,3.3V@2_P2_23*%
%TO.N,+3V3*%
X105918000Y-82169000D03*
%TO.P,U1,P2_24,GPIO44_P2_24*%
%TO.N,unconnected-(U1-GPIO44-PadP2_24)*%
X105918000Y-84709000D03*
%TO.P,U1,P2_25,SPI1.MOSI_P2_25*%
%TO.N,unconnected-(U1-SPI1.MOSI-PadP2_25)*%
X108458000Y-82169000D03*
%TO.P,U1,P2_26,RESET#_P2_26*%
%TO.N,unconnected-(U1-RESET#-PadP2_26)*%
X108458000Y-84709000D03*
%TO.P,U1,P2_27,SPI1.MISO_P2_27*%
%TO.N,unconnected-(U1-SPI1.MISO-PadP2_27)*%
X110998000Y-82169000D03*
%TO.P,U1,P2_28,PRU0.6_P2_28*%
%TO.N,unconnected-(U1-PRU0.6-PadP2_28)*%
X110998000Y-84709000D03*
%TO.P,U1,P2_29,SPI1.CLK_P2_29*%
%TO.N,unconnected-(U1-SPI1.CLK-PadP2_29)*%
X113538000Y-82169000D03*
%TO.P,U1,P2_30,PRU0.3_P2_30*%
%TO.N,unconnected-(U1-PRU0.3-PadP2_30)*%
X113538000Y-84709000D03*
%TO.P,U1,P2_31,SPI1.CS_P2_31*%
%TO.N,unconnected-(U1-SPI1.CS-PadP2_31)*%
X116078000Y-82169000D03*
%TO.P,U1,P2_32,PRU0.2_P2_32*%
%TO.N,/GPIO_B2*%
X116078000Y-84709000D03*
%TO.P,U1,P2_33,GPIO45_P2_33*%
%TO.N,unconnected-(U1-GPIO45-PadP2_33)*%
X118618000Y-82169000D03*
%TO.P,U1,P2_34,PRU0.5_P2_34*%
%TO.N,unconnected-(U1-PRU0.5-PadP2_34)*%
X118618000Y-84709000D03*
%TO.P,U1,P2_35,AIN5(3.3V)GPIO86_P2_35*%
%TO.N,unconnected-(U1-AIN5(3.3V)GPIO86-PadP2_35)*%
X121158000Y-82169000D03*
%TO.P,U1,P2_36,AIN7(1.8V)_P2_36*%
%TO.N,unconnected-(U1-AIN7(1.8V)-PadP2_36)*%
X121158000Y-84709000D03*
%TD*%
D20*
%TO.N,+3V3*%
X101000000Y-90000000D03*
X96000000Y-67000000D03*
X93500000Y-67000000D03*
X118500000Y-96000000D03*
%TO.N,GND*%
X63000000Y-97500000D03*
%TD*%
%TO.N,/I2C_SDA*%
D21*
X96012000Y-76708000D02*
X90678000Y-82042000D01*
X90678000Y-82042000D02*
X90678000Y-82169000D01*
%TO.N,/I2C_SCL*%
X93472000Y-76708000D02*
X93472000Y-76835000D01*
X93472000Y-76835000D02*
X88138000Y-82169000D01*
%TO.N,+3V3*%
D22*
X101000000Y-92699900D02*
X101000000Y-90000000D01*
X96000000Y-72199900D02*
X96000000Y-67000000D01*
X93500000Y-72199900D02*
X93500000Y-67000000D01*
X118500000Y-94800100D02*
X118500000Y-96000000D01*
%TO.N,GND*%
X60300100Y-97500000D02*
X63000000Y-97500000D01*
%TO.N,/GPIO_B2*%
D21*
X116740000Y-91734000D02*
X117034100Y-91734000D01*
X117034100Y-91734000D02*
X118500000Y-93199900D01*
%TO.N,/GPIO_M2_SLEEP*%
D22*
X74372000Y-80518000D02*
X72945000Y-81945000D01*
X72945000Y-84485000D02*
X72945000Y-81945000D01*
X69620000Y-87810000D02*
X72945000Y-84485000D01*
X83058000Y-82169000D02*
X81407000Y-80518000D01*
X81407000Y-80518000D02*
X74372000Y-80518000D01*
X72945000Y-81945000D02*
X69620000Y-85270000D01*
%TO.N,/GPIO_M2_STEP*%
X69620000Y-90350000D02*
X69620000Y-89808580D01*
X69620000Y-89808580D02*
X76835000Y-82593580D01*
X76835000Y-82593580D02*
X76835000Y-81026000D01*
X76835000Y-81026000D02*
X79375000Y-81026000D01*
X79375000Y-81026000D02*
X80518000Y-82169000D01*
%TO.N,/GPIO_M2_DIR*%
X76500000Y-83647000D02*
X76500000Y-92500000D01*
X77978000Y-82169000D02*
X76500000Y-83647000D01*
X76500000Y-92500000D02*
X76000000Y-92500000D01*
X76000000Y-92500000D02*
X75610000Y-92890000D01*
X75610000Y-92890000D02*
X69620000Y-92890000D01*
%TO.N,/GPIO_B2*%
D21*
X116740000Y-91734000D02*
X104240000Y-91734000D01*
X116078000Y-84709000D02*
X116740000Y-85371000D01*
X116740000Y-85371000D02*
X116740000Y-91734000D01*
%TO.N,/GPIO_B1*%
X98198000Y-92611929D02*
X99886171Y-94300100D01*
X99886171Y-94300100D02*
X101000000Y-94300100D01*
X98198000Y-91226000D02*
X85698000Y-91226000D01*
X98198000Y-91226000D02*
X98198000Y-92611929D01*
X98298000Y-84709000D02*
X98298000Y-91126000D01*
X98298000Y-91126000D02*
X98198000Y-91226000D01*
%TO.N,/I2C_SCL*%
X93472000Y-76708000D02*
X93472000Y-73828100D01*
X93472000Y-73828100D02*
X93500000Y-73800100D01*
%TO.N,/I2C_SDA*%
X96012000Y-76708000D02*
X96012000Y-73812100D01*
X96012000Y-73812100D02*
X96000000Y-73800100D01*
%TD*%
%TA.AperFunction,Conductor*%
%TO.N,GNDPWR*%
G36*
X126696539Y-50812185D02*
G01*
X126742294Y-50864989D01*
X126753500Y-50916500D01*
X126753500Y-100467500D01*
X126733815Y-100534539D01*
X126681011Y-100580294D01*
X126629500Y-100591500D01*
X51678500Y-100591500D01*
X51611461Y-100571815D01*
X51565706Y-100519011D01*
X51554500Y-100467500D01*
X51554500Y-97881738D01*
X51574185Y-97814699D01*
X51626989Y-97768944D01*
X51696147Y-97759000D01*
X51759703Y-97788025D01*
X51797477Y-97846803D01*
X51801720Y-97867855D01*
X51811734Y-97956739D01*
X51811737Y-97956757D01*
X51879779Y-98254871D01*
X51879783Y-98254883D01*
X51980772Y-98543490D01*
X51980778Y-98543504D01*
X52113448Y-98818997D01*
X52276136Y-99077913D01*
X52466789Y-99316986D01*
X52683013Y-99533210D01*
X52922086Y-99723863D01*
X53181002Y-99886551D01*
X53456495Y-100019221D01*
X53456509Y-100019227D01*
X53745116Y-100120216D01*
X53745128Y-100120220D01*
X54043252Y-100188264D01*
X54249999Y-100211558D01*
X54250000Y-100211558D01*
X54250000Y-99067692D01*
X54375061Y-99087500D01*
X54624939Y-99087500D01*
X54750000Y-99067692D01*
X54750000Y-100211558D01*
X54956747Y-100188264D01*
X55254871Y-100120220D01*
X55254883Y-100120216D01*
X55543490Y-100019227D01*
X55543504Y-100019221D01*
X55818997Y-99886551D01*
X56077913Y-99723863D01*
X56316986Y-99533210D01*
X56533210Y-99316986D01*
X56723863Y-99077913D01*
X56886551Y-98818997D01*
X57019221Y-98543504D01*
X57019227Y-98543490D01*
X57120216Y-98254883D01*
X57120220Y-98254871D01*
X57163907Y-98063464D01*
X57724920Y-98063464D01*
X57731321Y-98122992D01*
X57731323Y-98122999D01*
X57781565Y-98257706D01*
X57781569Y-98257713D01*
X57867729Y-98372807D01*
X57867732Y-98372810D01*
X57982826Y-98458970D01*
X57982833Y-98458974D01*
X58117540Y-98509216D01*
X58117547Y-98509218D01*
X58177075Y-98515619D01*
X58177092Y-98515620D01*
X58449900Y-98515620D01*
X58449900Y-97750000D01*
X57724920Y-97750000D01*
X57724920Y-98063464D01*
X57163907Y-98063464D01*
X57188262Y-97956757D01*
X57188264Y-97956741D01*
X57211559Y-97750000D01*
X56067693Y-97750000D01*
X56087500Y-97624939D01*
X56087500Y-97375061D01*
X56067693Y-97250000D01*
X57211559Y-97250000D01*
X57211559Y-97249999D01*
X57188264Y-97043258D01*
X57188262Y-97043241D01*
X57169451Y-96960823D01*
X57163907Y-96936535D01*
X57724920Y-96936535D01*
X57724920Y-97250000D01*
X58449900Y-97250000D01*
X58449900Y-96484380D01*
X58177075Y-96484380D01*
X58117547Y-96490781D01*
X58117540Y-96490783D01*
X57982833Y-96541025D01*
X57982826Y-96541029D01*
X57867732Y-96627189D01*
X57867729Y-96627192D01*
X57781569Y-96742286D01*
X57781565Y-96742293D01*
X57731323Y-96877000D01*
X57731321Y-96877007D01*
X57724920Y-96936535D01*
X57163907Y-96936535D01*
X57120219Y-96745124D01*
X57120216Y-96745116D01*
X57019227Y-96456509D01*
X57019221Y-96456495D01*
X56886551Y-96181002D01*
X56723863Y-95922086D01*
X56533210Y-95683013D01*
X56316986Y-95466789D01*
X56077913Y-95276136D01*
X55818997Y-95113448D01*
X55543504Y-94980778D01*
X55543490Y-94980772D01*
X55254883Y-94879783D01*
X55254871Y-94879779D01*
X54956757Y-94811737D01*
X54956741Y-94811735D01*
X54750000Y-94788440D01*
X54750000Y-95932307D01*
X54624939Y-95912500D01*
X54375061Y-95912500D01*
X54250000Y-95932307D01*
X54250000Y-94788441D01*
X54249999Y-94788440D01*
X54043258Y-94811735D01*
X54043242Y-94811737D01*
X53745128Y-94879779D01*
X53745116Y-94879783D01*
X53456509Y-94980772D01*
X53456495Y-94980778D01*
X53181002Y-95113448D01*
X52922086Y-95276136D01*
X52683013Y-95466789D01*
X52466789Y-95683013D01*
X52276136Y-95922086D01*
X52113448Y-96181002D01*
X51980778Y-96456495D01*
X51980772Y-96456509D01*
X51879783Y-96745116D01*
X51879779Y-96745128D01*
X51811737Y-97043242D01*
X51811735Y-97043258D01*
X51801720Y-97132145D01*
X51774654Y-97196559D01*
X51717059Y-97236114D01*
X51647222Y-97238251D01*
X51587315Y-97202293D01*
X51556360Y-97139655D01*
X51554500Y-97118261D01*
X51554500Y-94124000D01*
X51574185Y-94056961D01*
X51626989Y-94011206D01*
X51678500Y-94000000D01*
X53765455Y-94000000D01*
X53821748Y-94013514D01*
X53898439Y-94052591D01*
X53999372Y-94085386D01*
X54086236Y-94113610D01*
X54281264Y-94144500D01*
X54281269Y-94144500D01*
X54478736Y-94144500D01*
X54673763Y-94113610D01*
X54861561Y-94052591D01*
X54938251Y-94013514D01*
X54994545Y-94000000D01*
X59876000Y-94000000D01*
X59943039Y-94019685D01*
X59988794Y-94072489D01*
X60000000Y-94124000D01*
X60000000Y-96605880D01*
X59980315Y-96672919D01*
X59927511Y-96718674D01*
X59889536Y-96729139D01*
X59882779Y-96729880D01*
X59800054Y-96729881D01*
X59725819Y-96744646D01*
X59721392Y-96747603D01*
X59700119Y-96749940D01*
X59682417Y-96746787D01*
X59664539Y-96748706D01*
X59648733Y-96740789D01*
X59631331Y-96737691D01*
X59618143Y-96725469D01*
X59602067Y-96717417D01*
X59587316Y-96700992D01*
X59532066Y-96627189D01*
X59416973Y-96541029D01*
X59416966Y-96541025D01*
X59282259Y-96490783D01*
X59282252Y-96490781D01*
X59222724Y-96484380D01*
X58949900Y-96484380D01*
X58949900Y-98515620D01*
X59222708Y-98515620D01*
X59222724Y-98515619D01*
X59282252Y-98509218D01*
X59282259Y-98509216D01*
X59416966Y-98458974D01*
X59416973Y-98458970D01*
X59532066Y-98372811D01*
X59587316Y-98299007D01*
X59603035Y-98287239D01*
X59604910Y-98284061D01*
X59612166Y-98280404D01*
X59643250Y-98257136D01*
X59663291Y-98254641D01*
X59667306Y-98252619D01*
X59678844Y-98252706D01*
X59700119Y-98250059D01*
X59721390Y-98252394D01*
X59725819Y-98255354D01*
X59800053Y-98270120D01*
X59882796Y-98270119D01*
X59889536Y-98270860D01*
X59915770Y-98281796D01*
X59943038Y-98289803D01*
X59947597Y-98295065D01*
X59954026Y-98297745D01*
X59970180Y-98321126D01*
X59988794Y-98342606D01*
X59990527Y-98350573D01*
X59993743Y-98355228D01*
X59994143Y-98367195D01*
X60000000Y-98394119D01*
X60000000Y-99500000D01*
X120500000Y-99500000D01*
X120500000Y-97677051D01*
X120519685Y-97610012D01*
X120572489Y-97564257D01*
X120641647Y-97554313D01*
X120705203Y-97583338D01*
X120742977Y-97642116D01*
X120747220Y-97663168D01*
X120755734Y-97738739D01*
X120755737Y-97738757D01*
X120823779Y-98036871D01*
X120823783Y-98036883D01*
X120924772Y-98325490D01*
X120924778Y-98325504D01*
X121057448Y-98600997D01*
X121220136Y-98859913D01*
X121410789Y-99098986D01*
X121627013Y-99315210D01*
X121866086Y-99505863D01*
X122125002Y-99668551D01*
X122400495Y-99801221D01*
X122400509Y-99801227D01*
X122689116Y-99902216D01*
X122689128Y-99902220D01*
X122987252Y-99970264D01*
X123193999Y-99993558D01*
X123194000Y-99993558D01*
X123194000Y-98849692D01*
X123319061Y-98869500D01*
X123568939Y-98869500D01*
X123694000Y-98849692D01*
X123694000Y-99993558D01*
X123900747Y-99970264D01*
X124198871Y-99902220D01*
X124198883Y-99902216D01*
X124487490Y-99801227D01*
X124487504Y-99801221D01*
X124762997Y-99668551D01*
X125021913Y-99505863D01*
X125260986Y-99315210D01*
X125477210Y-99098986D01*
X125667863Y-98859913D01*
X125830551Y-98600997D01*
X125963221Y-98325504D01*
X125963227Y-98325490D01*
X126064216Y-98036883D01*
X126064220Y-98036871D01*
X126132262Y-97738757D01*
X126132264Y-97738741D01*
X126155559Y-97532000D01*
X125011693Y-97532000D01*
X125031500Y-97406939D01*
X125031500Y-97157061D01*
X125011693Y-97032000D01*
X126155559Y-97032000D01*
X126155559Y-97031999D01*
X126132264Y-96825258D01*
X126132262Y-96825242D01*
X126064220Y-96527128D01*
X126064216Y-96527116D01*
X125963227Y-96238509D01*
X125963221Y-96238495D01*
X125830551Y-95963002D01*
X125667863Y-95704086D01*
X125477210Y-95465013D01*
X125260986Y-95248789D01*
X125021913Y-95058136D01*
X124762997Y-94895448D01*
X124487504Y-94762778D01*
X124487490Y-94762772D01*
X124198883Y-94661783D01*
X124198871Y-94661779D01*
X123900757Y-94593737D01*
X123900741Y-94593735D01*
X123694000Y-94570440D01*
X123694000Y-95714307D01*
X123568939Y-95694500D01*
X123319061Y-95694500D01*
X123194000Y-95714307D01*
X123194000Y-94570441D01*
X123193999Y-94570440D01*
X122987258Y-94593735D01*
X122987242Y-94593737D01*
X122689128Y-94661779D01*
X122689116Y-94661783D01*
X122400509Y-94762772D01*
X122400495Y-94762778D01*
X122125002Y-94895448D01*
X121866086Y-95058136D01*
X121627013Y-95248789D01*
X121410789Y-95465013D01*
X121220136Y-95704086D01*
X121057448Y-95963002D01*
X120924778Y-96238495D01*
X120924772Y-96238509D01*
X120823783Y-96527116D01*
X120823779Y-96527128D01*
X120755737Y-96825242D01*
X120755735Y-96825258D01*
X120747220Y-96900832D01*
X120720153Y-96965246D01*
X120662559Y-97004801D01*
X120592722Y-97006938D01*
X120532815Y-96970980D01*
X120501860Y-96908342D01*
X120500000Y-96886948D01*
X120500000Y-94124000D01*
X120519685Y-94056961D01*
X120572489Y-94011206D01*
X120624000Y-94000000D01*
X125006783Y-94000000D01*
X125006784Y-94000000D01*
X125500028Y-57500000D01*
X125500027Y-57500000D01*
X122163911Y-57500000D01*
X122096872Y-57480315D01*
X122051117Y-57427511D01*
X122041173Y-57358353D01*
X122070198Y-57294797D01*
X122076230Y-57288319D01*
X122117681Y-57246867D01*
X122117682Y-57246866D01*
X122117681Y-57246866D01*
X122117684Y-57246864D01*
X122159734Y-57183932D01*
X122174500Y-57109698D01*
X122174500Y-56709730D01*
X122194185Y-56642693D01*
X122246989Y-56596938D01*
X122316147Y-56586994D01*
X122352303Y-56598013D01*
X122400488Y-56621218D01*
X122400509Y-56621227D01*
X122689116Y-56722216D01*
X122689128Y-56722220D01*
X122987252Y-56790264D01*
X123193999Y-56813558D01*
X123194000Y-56813558D01*
X123194000Y-55669692D01*
X123319061Y-55689500D01*
X123568939Y-55689500D01*
X123694000Y-55669692D01*
X123694000Y-56813558D01*
X123900747Y-56790264D01*
X124198871Y-56722220D01*
X124198883Y-56722216D01*
X124487490Y-56621227D01*
X124487504Y-56621221D01*
X124762997Y-56488551D01*
X125021913Y-56325863D01*
X125260986Y-56135210D01*
X125477210Y-55918986D01*
X125667863Y-55679913D01*
X125830551Y-55420997D01*
X125963221Y-55145504D01*
X125963227Y-55145490D01*
X126064216Y-54856883D01*
X126064220Y-54856871D01*
X126132262Y-54558757D01*
X126132264Y-54558741D01*
X126155559Y-54352000D01*
X125011693Y-54352000D01*
X125031500Y-54226939D01*
X125031500Y-53977061D01*
X125011693Y-53852000D01*
X126155559Y-53852000D01*
X126155559Y-53851999D01*
X126132264Y-53645258D01*
X126132262Y-53645242D01*
X126064220Y-53347128D01*
X126064216Y-53347116D01*
X125963227Y-53058509D01*
X125963221Y-53058495D01*
X125830551Y-52783002D01*
X125667863Y-52524086D01*
X125477210Y-52285013D01*
X125260986Y-52068789D01*
X125021913Y-51878136D01*
X124762997Y-51715448D01*
X124487504Y-51582778D01*
X124487490Y-51582772D01*
X124198883Y-51481783D01*
X124198871Y-51481779D01*
X123900757Y-51413737D01*
X123900741Y-51413735D01*
X123694000Y-51390440D01*
X123694000Y-52534307D01*
X123568939Y-52514500D01*
X123319061Y-52514500D01*
X123194000Y-52534307D01*
X123194000Y-51390441D01*
X123193999Y-51390440D01*
X122987258Y-51413735D01*
X122987242Y-51413737D01*
X122689128Y-51481779D01*
X122689116Y-51481783D01*
X122400509Y-51582772D01*
X122400495Y-51582778D01*
X122125002Y-51715448D01*
X121866086Y-51878136D01*
X121627013Y-52068789D01*
X121410789Y-52285013D01*
X121220136Y-52524086D01*
X121057448Y-52783002D01*
X120924778Y-53058495D01*
X120924772Y-53058509D01*
X120823783Y-53347116D01*
X120823780Y-53347125D01*
X120803412Y-53436365D01*
X120769303Y-53497343D01*
X120707642Y-53530201D01*
X120638004Y-53524506D01*
X120582501Y-53482066D01*
X120564590Y-53447090D01*
X120558144Y-53427252D01*
X120538884Y-53367975D01*
X120449524Y-53192595D01*
X120333828Y-53033354D01*
X120194646Y-52894172D01*
X120051114Y-52789889D01*
X120008449Y-52734558D01*
X120000000Y-52689571D01*
X120000000Y-50916500D01*
X120019685Y-50849461D01*
X120072489Y-50803706D01*
X120124000Y-50792500D01*
X126629500Y-50792500D01*
X126696539Y-50812185D01*
G37*
%TD.AperFunction*%
%TD*%
M02*
