%TF.GenerationSoftware,KiCad,Pcbnew,10.0.0*%
%TF.CreationDate,2026-04-30T23:04:54-05:00*%
%TF.ProjectId,Project_02,50726f6a-6563-4745-9f30-322e6b696361,rev?*%
%TF.SameCoordinates,Original*%
%TF.FileFunction,Soldermask,Bot*%
%TF.FilePolarity,Negative*%
%FSLAX46Y46*%
G04 Gerber Fmt 4.6, Leading zero omitted, Abs format (unit mm)*
G04 Created by KiCad (PCBNEW 10.0.0) date 2026-04-30 23:04:54*
%MOMM*%
%LPD*%
G01*
G04 APERTURE LIST*
G04 Aperture macros list*
%AMRoundRect*
0 Rectangle with rounded corners*
0 $1 Rounding radius*
0 $2 $3 $4 $5 $6 $7 $8 $9 X,Y pos of 4 corners*
0 Add a 4 corners polygon primitive as box body*
4,1,4,$2,$3,$4,$5,$6,$7,$8,$9,$2,$3,0*
0 Add four circle primitives for the rounded corners*
1,1,$1+$1,$2,$3*
1,1,$1+$1,$4,$5*
1,1,$1+$1,$6,$7*
1,1,$1+$1,$8,$9*
0 Add four rect primitives between the rounded corners*
20,1,$1+$1,$2,$3,$4,$5,0*
20,1,$1+$1,$4,$5,$6,$7,0*
20,1,$1+$1,$6,$7,$8,$9,0*
20,1,$1+$1,$8,$9,$2,$3,0*%
%AMFreePoly0*
4,1,25,0.364611,0.820373,0.369513,0.815882,0.815882,0.369513,0.837910,0.322272,0.838200,0.315631,0.838200,-0.315631,0.820373,-0.364611,0.815882,-0.369513,0.369513,-0.815882,0.322272,-0.837910,0.315631,-0.838200,-0.315631,-0.838200,-0.364611,-0.820373,-0.369513,-0.815882,-0.815882,-0.369513,-0.837910,-0.322272,-0.838200,-0.315631,-0.838200,0.315631,-0.820373,0.364611,-0.815882,0.369513,
-0.369513,0.815882,-0.322272,0.837910,-0.315631,0.838200,0.315631,0.838200,0.364611,0.820373,0.364611,0.820373,$1*%
G04 Aperture macros list end*
%ADD10C,0.609600*%
%ADD11C,2.112400*%
%ADD12C,4.597400*%
%ADD13R,2.000000X2.000000*%
%ADD14C,2.000000*%
%ADD15C,1.930400*%
%ADD16RoundRect,0.584200X-0.000010X-0.000010X0.000010X-0.000010X0.000010X0.000010X-0.000010X0.000010X0*%
%ADD17RoundRect,0.076200X0.762000X0.762000X-0.762000X0.762000X-0.762000X-0.762000X0.762000X-0.762000X0*%
%ADD18FreePoly0,180.000000*%
G04 APERTURE END LIST*
%TO.C,FUD6*%
D10*
X124206000Y-92456000D02*
G75*
G02*
X122682000Y-92456000I-762000J0D01*
G01*
X122682000Y-92456000D02*
G75*
G02*
X124206000Y-92456000I762000J0D01*
G01*
%TO.C,FUD3*%
X67762000Y-97000000D02*
G75*
G02*
X66238000Y-97000000I-762000J0D01*
G01*
X66238000Y-97000000D02*
G75*
G02*
X67762000Y-97000000I762000J0D01*
G01*
%TO.C,FUD5*%
X124762000Y-61500000D02*
G75*
G02*
X123238000Y-61500000I-762000J0D01*
G01*
X123238000Y-61500000D02*
G75*
G02*
X124762000Y-61500000I762000J0D01*
G01*
%TD*%
D11*
%TO.C,SW1*%
X85698000Y-91226000D03*
X85698000Y-96226000D03*
X98198000Y-91226000D03*
X98198000Y-96226000D03*
%TD*%
D12*
%TO.C,M1*%
X54500000Y-97500000D03*
%TD*%
D13*
%TO.C,D2*%
X54380000Y-75110000D03*
D14*
X54380000Y-77650000D03*
X54380000Y-80190000D03*
X54380000Y-82730000D03*
X54380000Y-85270000D03*
X54380000Y-87810000D03*
X54380000Y-90350000D03*
X54380000Y-92890000D03*
X69620000Y-75110000D03*
X69620000Y-77650000D03*
X69620000Y-80190000D03*
X69620000Y-82730000D03*
X69620000Y-85270000D03*
X69620000Y-87810000D03*
X69620000Y-90350000D03*
X69620000Y-92890000D03*
%TD*%
D11*
%TO.C,SW2*%
X104240000Y-91734000D03*
X104240000Y-96734000D03*
X116740000Y-91734000D03*
X116740000Y-96734000D03*
%TD*%
D12*
%TO.C,M3*%
X123444000Y-54102000D03*
%TD*%
D14*
%TO.C,U2*%
X119380000Y-76708000D03*
X119380000Y-53848000D03*
X75692000Y-76708000D03*
X75692000Y-53848000D03*
D15*
X98552000Y-76708000D03*
X93472000Y-76708000D03*
X96012000Y-76708000D03*
X101092000Y-76708000D03*
%TD*%
D12*
%TO.C,M4*%
X123444000Y-97282000D03*
%TD*%
D13*
%TO.C,D1*%
X54380000Y-70390000D03*
D14*
X54380000Y-67850000D03*
X54380000Y-65310000D03*
X54380000Y-62770000D03*
X54380000Y-60230000D03*
X54380000Y-57690000D03*
X54380000Y-55150000D03*
X54380000Y-52610000D03*
X69620000Y-70390000D03*
X69620000Y-67850000D03*
X69620000Y-65310000D03*
X69620000Y-62770000D03*
X69620000Y-60230000D03*
X69620000Y-57690000D03*
X69620000Y-55150000D03*
X69620000Y-52610000D03*
%TD*%
D16*
%TO.C,FUD6*%
X123444000Y-92456000D03*
%TD*%
D17*
%TO.C,U1*%
X77978000Y-56769000D03*
D18*
X77978000Y-59309000D03*
X80518000Y-56769000D03*
X80518000Y-59309000D03*
X83058000Y-56769000D03*
X83058000Y-59309000D03*
X85598000Y-56769000D03*
X85598000Y-59309000D03*
X88138000Y-56769000D03*
X88138000Y-59309000D03*
X90678000Y-56769000D03*
X90678000Y-59309000D03*
X93218000Y-56769000D03*
X93218000Y-59309000D03*
X95758000Y-56769000D03*
X95758000Y-59309000D03*
X98298000Y-56769000D03*
X98298000Y-59309000D03*
X100838000Y-56769000D03*
X100838000Y-59309000D03*
X103378000Y-56769000D03*
X103378000Y-59309000D03*
X105918000Y-56769000D03*
X105918000Y-59309000D03*
X108458000Y-56769000D03*
X108458000Y-59309000D03*
X110998000Y-56769000D03*
X110998000Y-59309000D03*
X113538000Y-56769000D03*
X113538000Y-59309000D03*
X116078000Y-56769000D03*
X116078000Y-59309000D03*
X118618000Y-56769000D03*
X118618000Y-59309000D03*
X121158000Y-56769000D03*
X121158000Y-59309000D03*
D17*
X77978000Y-82169000D03*
D18*
X77978000Y-84709000D03*
X80518000Y-82169000D03*
X80518000Y-84709000D03*
X83058000Y-82169000D03*
X83058000Y-84709000D03*
X85598000Y-82169000D03*
X85598000Y-84709000D03*
X88138000Y-82169000D03*
X88138000Y-84709000D03*
X90678000Y-82169000D03*
X90678000Y-84709000D03*
X93218000Y-82169000D03*
X93218000Y-84709000D03*
X95758000Y-82169000D03*
X95758000Y-84709000D03*
X98298000Y-82169000D03*
X98298000Y-84709000D03*
X100838000Y-82169000D03*
X100838000Y-84709000D03*
X103378000Y-82169000D03*
X103378000Y-84709000D03*
X105918000Y-82169000D03*
X105918000Y-84709000D03*
X108458000Y-82169000D03*
X108458000Y-84709000D03*
X110998000Y-82169000D03*
X110998000Y-84709000D03*
X113538000Y-82169000D03*
X113538000Y-84709000D03*
X116078000Y-82169000D03*
X116078000Y-84709000D03*
X118618000Y-82169000D03*
X118618000Y-84709000D03*
X121158000Y-82169000D03*
X121158000Y-84709000D03*
%TD*%
D16*
%TO.C,FUD3*%
X67000000Y-97000000D03*
%TD*%
%TO.C,FUD5*%
X124000000Y-61500000D03*
%TD*%
M02*
