%TF.GenerationSoftware,KiCad,Pcbnew,10.0.0*%
%TF.CreationDate,2026-04-30T21:43:52-05:00*%
%TF.ProjectId,Project_02,50726f6a-6563-4745-9f30-322e6b696361,rev?*%
%TF.SameCoordinates,Original*%
%TF.FileFunction,Legend,Top*%
%TF.FilePolarity,Positive*%
%FSLAX46Y46*%
G04 Gerber Fmt 4.6, Leading zero omitted, Abs format (unit mm)*
G04 Created by KiCad (PCBNEW 10.0.0) date 2026-04-30 21:43:52*
%MOMM*%
%LPD*%
G01*
G04 APERTURE LIST*
%ADD10C,0.127000*%
%ADD11C,0.140208*%
%ADD12C,0.100000*%
%ADD13C,0.137160*%
%ADD14C,0.081280*%
%ADD15C,0.254000*%
%ADD16C,0.750000*%
%ADD17C,0.508000*%
G04 APERTURE END LIST*
D10*
X120364533Y-91893924D02*
X120093600Y-91506877D01*
X119900076Y-91893924D02*
X119900076Y-91081124D01*
X119900076Y-91081124D02*
X120209714Y-91081124D01*
X120209714Y-91081124D02*
X120287124Y-91119829D01*
X120287124Y-91119829D02*
X120325829Y-91158534D01*
X120325829Y-91158534D02*
X120364533Y-91235943D01*
X120364533Y-91235943D02*
X120364533Y-91352058D01*
X120364533Y-91352058D02*
X120325829Y-91429467D01*
X120325829Y-91429467D02*
X120287124Y-91468172D01*
X120287124Y-91468172D02*
X120209714Y-91506877D01*
X120209714Y-91506877D02*
X119900076Y-91506877D01*
X120674172Y-91158534D02*
X120712876Y-91119829D01*
X120712876Y-91119829D02*
X120790286Y-91081124D01*
X120790286Y-91081124D02*
X120983810Y-91081124D01*
X120983810Y-91081124D02*
X121061219Y-91119829D01*
X121061219Y-91119829D02*
X121099924Y-91158534D01*
X121099924Y-91158534D02*
X121138629Y-91235943D01*
X121138629Y-91235943D02*
X121138629Y-91313353D01*
X121138629Y-91313353D02*
X121099924Y-91429467D01*
X121099924Y-91429467D02*
X120635467Y-91893924D01*
X120635467Y-91893924D02*
X121138629Y-91893924D01*
X91364533Y-72893924D02*
X91093600Y-72506877D01*
X90900076Y-72893924D02*
X90900076Y-72081124D01*
X90900076Y-72081124D02*
X91209714Y-72081124D01*
X91209714Y-72081124D02*
X91287124Y-72119829D01*
X91287124Y-72119829D02*
X91325829Y-72158534D01*
X91325829Y-72158534D02*
X91364533Y-72235943D01*
X91364533Y-72235943D02*
X91364533Y-72352058D01*
X91364533Y-72352058D02*
X91325829Y-72429467D01*
X91325829Y-72429467D02*
X91287124Y-72468172D01*
X91287124Y-72468172D02*
X91209714Y-72506877D01*
X91209714Y-72506877D02*
X90900076Y-72506877D01*
X92061219Y-72352058D02*
X92061219Y-72893924D01*
X91867695Y-72042420D02*
X91674172Y-72622991D01*
X91674172Y-72622991D02*
X92177333Y-72622991D01*
D11*
X98859440Y-99368645D02*
X99020839Y-99422444D01*
X99020839Y-99422444D02*
X99289837Y-99422444D01*
X99289837Y-99422444D02*
X99397436Y-99368645D01*
X99397436Y-99368645D02*
X99451236Y-99314845D01*
X99451236Y-99314845D02*
X99505035Y-99207246D01*
X99505035Y-99207246D02*
X99505035Y-99099646D01*
X99505035Y-99099646D02*
X99451236Y-98992047D01*
X99451236Y-98992047D02*
X99397436Y-98938248D01*
X99397436Y-98938248D02*
X99289837Y-98884448D01*
X99289837Y-98884448D02*
X99074638Y-98830648D01*
X99074638Y-98830648D02*
X98967039Y-98776849D01*
X98967039Y-98776849D02*
X98913240Y-98723049D01*
X98913240Y-98723049D02*
X98859440Y-98615450D01*
X98859440Y-98615450D02*
X98859440Y-98507851D01*
X98859440Y-98507851D02*
X98913240Y-98400251D01*
X98913240Y-98400251D02*
X98967039Y-98346452D01*
X98967039Y-98346452D02*
X99074638Y-98292652D01*
X99074638Y-98292652D02*
X99343637Y-98292652D01*
X99343637Y-98292652D02*
X99505035Y-98346452D01*
X99881632Y-98292652D02*
X100150630Y-99422444D01*
X100150630Y-99422444D02*
X100365829Y-98615450D01*
X100365829Y-98615450D02*
X100581027Y-99422444D01*
X100581027Y-99422444D02*
X100850026Y-98292652D01*
X101872218Y-99422444D02*
X101226623Y-99422444D01*
X101549421Y-99422444D02*
X101549421Y-98292652D01*
X101549421Y-98292652D02*
X101441821Y-98454051D01*
X101441821Y-98454051D02*
X101334222Y-98561650D01*
X101334222Y-98561650D02*
X101226623Y-98615450D01*
D12*
X61261905Y-80657419D02*
X61261905Y-79657419D01*
X61261905Y-79657419D02*
X61500000Y-79657419D01*
X61500000Y-79657419D02*
X61642857Y-79705038D01*
X61642857Y-79705038D02*
X61738095Y-79800276D01*
X61738095Y-79800276D02*
X61785714Y-79895514D01*
X61785714Y-79895514D02*
X61833333Y-80085990D01*
X61833333Y-80085990D02*
X61833333Y-80228847D01*
X61833333Y-80228847D02*
X61785714Y-80419323D01*
X61785714Y-80419323D02*
X61738095Y-80514561D01*
X61738095Y-80514561D02*
X61642857Y-80609800D01*
X61642857Y-80609800D02*
X61500000Y-80657419D01*
X61500000Y-80657419D02*
X61261905Y-80657419D01*
X62214286Y-79752657D02*
X62261905Y-79705038D01*
X62261905Y-79705038D02*
X62357143Y-79657419D01*
X62357143Y-79657419D02*
X62595238Y-79657419D01*
X62595238Y-79657419D02*
X62690476Y-79705038D01*
X62690476Y-79705038D02*
X62738095Y-79752657D01*
X62738095Y-79752657D02*
X62785714Y-79847895D01*
X62785714Y-79847895D02*
X62785714Y-79943133D01*
X62785714Y-79943133D02*
X62738095Y-80085990D01*
X62738095Y-80085990D02*
X62166667Y-80657419D01*
X62166667Y-80657419D02*
X62785714Y-80657419D01*
D11*
X117401440Y-99876645D02*
X117562839Y-99930444D01*
X117562839Y-99930444D02*
X117831837Y-99930444D01*
X117831837Y-99930444D02*
X117939436Y-99876645D01*
X117939436Y-99876645D02*
X117993236Y-99822845D01*
X117993236Y-99822845D02*
X118047035Y-99715246D01*
X118047035Y-99715246D02*
X118047035Y-99607646D01*
X118047035Y-99607646D02*
X117993236Y-99500047D01*
X117993236Y-99500047D02*
X117939436Y-99446248D01*
X117939436Y-99446248D02*
X117831837Y-99392448D01*
X117831837Y-99392448D02*
X117616638Y-99338648D01*
X117616638Y-99338648D02*
X117509039Y-99284849D01*
X117509039Y-99284849D02*
X117455240Y-99231049D01*
X117455240Y-99231049D02*
X117401440Y-99123450D01*
X117401440Y-99123450D02*
X117401440Y-99015851D01*
X117401440Y-99015851D02*
X117455240Y-98908251D01*
X117455240Y-98908251D02*
X117509039Y-98854452D01*
X117509039Y-98854452D02*
X117616638Y-98800652D01*
X117616638Y-98800652D02*
X117885637Y-98800652D01*
X117885637Y-98800652D02*
X118047035Y-98854452D01*
X118423632Y-98800652D02*
X118692630Y-99930444D01*
X118692630Y-99930444D02*
X118907829Y-99123450D01*
X118907829Y-99123450D02*
X119123027Y-99930444D01*
X119123027Y-99930444D02*
X119392026Y-98800652D01*
X119768623Y-98908251D02*
X119822423Y-98854452D01*
X119822423Y-98854452D02*
X119930022Y-98800652D01*
X119930022Y-98800652D02*
X120199020Y-98800652D01*
X120199020Y-98800652D02*
X120306619Y-98854452D01*
X120306619Y-98854452D02*
X120360419Y-98908251D01*
X120360419Y-98908251D02*
X120414218Y-99015851D01*
X120414218Y-99015851D02*
X120414218Y-99123450D01*
X120414218Y-99123450D02*
X120360419Y-99284849D01*
X120360419Y-99284849D02*
X119714823Y-99930444D01*
X119714823Y-99930444D02*
X120414218Y-99930444D01*
D10*
X59045466Y-98481111D02*
X59316399Y-98868158D01*
X59509923Y-98481111D02*
X59509923Y-99293911D01*
X59509923Y-99293911D02*
X59200285Y-99293911D01*
X59200285Y-99293911D02*
X59122875Y-99255206D01*
X59122875Y-99255206D02*
X59084170Y-99216501D01*
X59084170Y-99216501D02*
X59045466Y-99139092D01*
X59045466Y-99139092D02*
X59045466Y-99022977D01*
X59045466Y-99022977D02*
X59084170Y-98945568D01*
X59084170Y-98945568D02*
X59122875Y-98906863D01*
X59122875Y-98906863D02*
X59200285Y-98868158D01*
X59200285Y-98868158D02*
X59509923Y-98868158D01*
X58310075Y-99293911D02*
X58697123Y-99293911D01*
X58697123Y-99293911D02*
X58735827Y-98906863D01*
X58735827Y-98906863D02*
X58697123Y-98945568D01*
X58697123Y-98945568D02*
X58619713Y-98984273D01*
X58619713Y-98984273D02*
X58426189Y-98984273D01*
X58426189Y-98984273D02*
X58348780Y-98945568D01*
X58348780Y-98945568D02*
X58310075Y-98906863D01*
X58310075Y-98906863D02*
X58271370Y-98829454D01*
X58271370Y-98829454D02*
X58271370Y-98635930D01*
X58271370Y-98635930D02*
X58310075Y-98558520D01*
X58310075Y-98558520D02*
X58348780Y-98519816D01*
X58348780Y-98519816D02*
X58426189Y-98481111D01*
X58426189Y-98481111D02*
X58619713Y-98481111D01*
X58619713Y-98481111D02*
X58697123Y-98519816D01*
X58697123Y-98519816D02*
X58735827Y-98558520D01*
X97864533Y-72393924D02*
X97593600Y-72006877D01*
X97400076Y-72393924D02*
X97400076Y-71581124D01*
X97400076Y-71581124D02*
X97709714Y-71581124D01*
X97709714Y-71581124D02*
X97787124Y-71619829D01*
X97787124Y-71619829D02*
X97825829Y-71658534D01*
X97825829Y-71658534D02*
X97864533Y-71735943D01*
X97864533Y-71735943D02*
X97864533Y-71852058D01*
X97864533Y-71852058D02*
X97825829Y-71929467D01*
X97825829Y-71929467D02*
X97787124Y-71968172D01*
X97787124Y-71968172D02*
X97709714Y-72006877D01*
X97709714Y-72006877D02*
X97400076Y-72006877D01*
X98135467Y-71581124D02*
X98638629Y-71581124D01*
X98638629Y-71581124D02*
X98367695Y-71890762D01*
X98367695Y-71890762D02*
X98483810Y-71890762D01*
X98483810Y-71890762D02*
X98561219Y-71929467D01*
X98561219Y-71929467D02*
X98599924Y-71968172D01*
X98599924Y-71968172D02*
X98638629Y-72045581D01*
X98638629Y-72045581D02*
X98638629Y-72239105D01*
X98638629Y-72239105D02*
X98599924Y-72316515D01*
X98599924Y-72316515D02*
X98561219Y-72355220D01*
X98561219Y-72355220D02*
X98483810Y-72393924D01*
X98483810Y-72393924D02*
X98251581Y-72393924D01*
X98251581Y-72393924D02*
X98174172Y-72355220D01*
X98174172Y-72355220D02*
X98135467Y-72316515D01*
X101864533Y-90893924D02*
X101593600Y-90506877D01*
X101400076Y-90893924D02*
X101400076Y-90081124D01*
X101400076Y-90081124D02*
X101709714Y-90081124D01*
X101709714Y-90081124D02*
X101787124Y-90119829D01*
X101787124Y-90119829D02*
X101825829Y-90158534D01*
X101825829Y-90158534D02*
X101864533Y-90235943D01*
X101864533Y-90235943D02*
X101864533Y-90352058D01*
X101864533Y-90352058D02*
X101825829Y-90429467D01*
X101825829Y-90429467D02*
X101787124Y-90468172D01*
X101787124Y-90468172D02*
X101709714Y-90506877D01*
X101709714Y-90506877D02*
X101400076Y-90506877D01*
X102638629Y-90893924D02*
X102174172Y-90893924D01*
X102406400Y-90893924D02*
X102406400Y-90081124D01*
X102406400Y-90081124D02*
X102328991Y-90197239D01*
X102328991Y-90197239D02*
X102251581Y-90274648D01*
X102251581Y-90274648D02*
X102174172Y-90313353D01*
D13*
X120036040Y-80526610D02*
X120036040Y-79609549D01*
X120036040Y-79609549D02*
X119982095Y-79501659D01*
X119982095Y-79501659D02*
X119928150Y-79447715D01*
X119928150Y-79447715D02*
X119820261Y-79393770D01*
X119820261Y-79393770D02*
X119604482Y-79393770D01*
X119604482Y-79393770D02*
X119496592Y-79447715D01*
X119496592Y-79447715D02*
X119442647Y-79501659D01*
X119442647Y-79501659D02*
X119388703Y-79609549D01*
X119388703Y-79609549D02*
X119388703Y-80526610D01*
X118903199Y-80418720D02*
X118849255Y-80472665D01*
X118849255Y-80472665D02*
X118741365Y-80526610D01*
X118741365Y-80526610D02*
X118471641Y-80526610D01*
X118471641Y-80526610D02*
X118363752Y-80472665D01*
X118363752Y-80472665D02*
X118309807Y-80418720D01*
X118309807Y-80418720D02*
X118255862Y-80310831D01*
X118255862Y-80310831D02*
X118255862Y-80202941D01*
X118255862Y-80202941D02*
X118309807Y-80041107D01*
X118309807Y-80041107D02*
X118957144Y-79393770D01*
X118957144Y-79393770D02*
X118255862Y-79393770D01*
D14*
X93774151Y-80056360D02*
X93729640Y-80100871D01*
X93729640Y-80100871D02*
X93596109Y-80145381D01*
X93596109Y-80145381D02*
X93507088Y-80145381D01*
X93507088Y-80145381D02*
X93373556Y-80100871D01*
X93373556Y-80100871D02*
X93284535Y-80011850D01*
X93284535Y-80011850D02*
X93240025Y-79922829D01*
X93240025Y-79922829D02*
X93195514Y-79744787D01*
X93195514Y-79744787D02*
X93195514Y-79611255D01*
X93195514Y-79611255D02*
X93240025Y-79433213D01*
X93240025Y-79433213D02*
X93284535Y-79344192D01*
X93284535Y-79344192D02*
X93373556Y-79255171D01*
X93373556Y-79255171D02*
X93507088Y-79210661D01*
X93507088Y-79210661D02*
X93596109Y-79210661D01*
X93596109Y-79210661D02*
X93729640Y-79255171D01*
X93729640Y-79255171D02*
X93774151Y-79299682D01*
X95780025Y-80145381D02*
X95780025Y-79210661D01*
X95780025Y-79210661D02*
X96002577Y-79210661D01*
X96002577Y-79210661D02*
X96136109Y-79255171D01*
X96136109Y-79255171D02*
X96225130Y-79344192D01*
X96225130Y-79344192D02*
X96269640Y-79433213D01*
X96269640Y-79433213D02*
X96314151Y-79611255D01*
X96314151Y-79611255D02*
X96314151Y-79744787D01*
X96314151Y-79744787D02*
X96269640Y-79922829D01*
X96269640Y-79922829D02*
X96225130Y-80011850D01*
X96225130Y-80011850D02*
X96136109Y-80100871D01*
X96136109Y-80100871D02*
X96002577Y-80145381D01*
X96002577Y-80145381D02*
X95780025Y-80145381D01*
X98320025Y-79789297D02*
X99032193Y-79789297D01*
X100860025Y-79789297D02*
X101572193Y-79789297D01*
X101216109Y-80145381D02*
X101216109Y-79433213D01*
%TO.C,R2*%
D10*
X119008000Y-94000000D02*
X117992000Y-94000000D01*
%TO.C,R4*%
X92992000Y-73000000D02*
X94008000Y-73000000D01*
%TO.C,SW1*%
D15*
X85948000Y-88726000D02*
X85948000Y-89976000D01*
X85948000Y-92476000D02*
X85948000Y-94976000D01*
X85948000Y-97476000D02*
X85948000Y-98726000D01*
X86948000Y-87726000D02*
X96948000Y-87726000D01*
X89948000Y-91726000D02*
X93948000Y-91726000D01*
X89948000Y-95726000D02*
X89948000Y-91726000D01*
X93948000Y-91726000D02*
X93948000Y-95726000D01*
X93948000Y-95726000D02*
X89948000Y-95726000D01*
X96948000Y-99726000D02*
X86948000Y-99726000D01*
X97948000Y-88726000D02*
X97948000Y-89976000D01*
X97948000Y-92476000D02*
X97948000Y-94976000D01*
X97948000Y-97476000D02*
X97948000Y-98726000D01*
X85948000Y-88726000D02*
G75*
G02*
X86948000Y-87726000I999999J1D01*
G01*
X86948000Y-99726000D02*
G75*
G02*
X85948000Y-98726000I-1J999999D01*
G01*
X96948000Y-87726000D02*
G75*
G02*
X97948000Y-88726000I0J-1000000D01*
G01*
X97948000Y-98726000D02*
G75*
G02*
X96948000Y-99726000I-1000000J0D01*
G01*
X95483531Y-93726000D02*
G75*
G02*
X88412469Y-93726000I-3535531J0D01*
G01*
X88412469Y-93726000D02*
G75*
G02*
X95483531Y-93726000I3535531J0D01*
G01*
%TO.C,D2*%
D12*
X71300000Y-73700000D02*
X71300000Y-73800000D01*
X53000000Y-73700000D02*
X71300000Y-73700000D01*
X53000000Y-73700000D02*
X53000000Y-94200000D01*
X71300000Y-73800000D02*
X71300000Y-94200000D01*
X53000000Y-94200000D02*
X71300000Y-94200000D01*
D16*
X57375000Y-75110000D02*
G75*
G02*
X56625000Y-75110000I-375000J0D01*
G01*
X56625000Y-75110000D02*
G75*
G02*
X57375000Y-75110000I375000J0D01*
G01*
%TO.C,SW2*%
D15*
X104490000Y-89234000D02*
X104490000Y-90484000D01*
X104490000Y-92984000D02*
X104490000Y-95484000D01*
X104490000Y-97984000D02*
X104490000Y-99234000D01*
X105490000Y-88234000D02*
X115490000Y-88234000D01*
X108490000Y-92234000D02*
X112490000Y-92234000D01*
X108490000Y-96234000D02*
X108490000Y-92234000D01*
X112490000Y-92234000D02*
X112490000Y-96234000D01*
X112490000Y-96234000D02*
X108490000Y-96234000D01*
X115490000Y-100234000D02*
X105490000Y-100234000D01*
X116490000Y-89234000D02*
X116490000Y-90484000D01*
X116490000Y-92984000D02*
X116490000Y-95484000D01*
X116490000Y-97984000D02*
X116490000Y-99234000D01*
X104490000Y-89234000D02*
G75*
G02*
X105490000Y-88234000I999999J1D01*
G01*
X105490000Y-100234000D02*
G75*
G02*
X104490000Y-99234000I-1J999999D01*
G01*
X115490000Y-88234000D02*
G75*
G02*
X116490000Y-89234000I0J-1000000D01*
G01*
X116490000Y-99234000D02*
G75*
G02*
X115490000Y-100234000I-1000000J0D01*
G01*
X114025531Y-94234000D02*
G75*
G02*
X106954469Y-94234000I-3535531J0D01*
G01*
X106954469Y-94234000D02*
G75*
G02*
X114025531Y-94234000I3535531J0D01*
G01*
%TO.C,R5*%
D10*
X59500000Y-98008000D02*
X59500000Y-96992000D01*
%TO.C,R3*%
X95492000Y-73000000D02*
X96508000Y-73000000D01*
%TO.C,R1*%
X100492000Y-93500000D02*
X101508000Y-93500000D01*
%TO.C,U2*%
D17*
X72517000Y-54483000D02*
X72517000Y-76073000D01*
X75057000Y-78613000D02*
X120015000Y-78613000D01*
X120015000Y-51943000D02*
X75057000Y-51943000D01*
X122555000Y-76073000D02*
X122555000Y-54483000D01*
X72517000Y-54483000D02*
G75*
G02*
X75057000Y-51943000I2540000J0D01*
G01*
X75057000Y-78613000D02*
G75*
G02*
X72517000Y-76073000I0J2540000D01*
G01*
X120015000Y-51943000D02*
G75*
G02*
X122555000Y-54483000I-1J-2540001D01*
G01*
X122555000Y-76073000D02*
G75*
G02*
X120015000Y-78613000I-2540001J1D01*
G01*
%TD*%
M02*
